<?xml version="1.0" encoding="UTF-8"?>
<svg xmlns="http://www.w3.org/2000/svg" viewBox="0 0 1920 1920">
  <defs>
    <style>
      .cls-1 {
        stroke-miterlimit: 10;
      }

      .cls-1, .cls-2, .cls-3, .cls-4, .cls-5 {
        stroke: #001450;
      }

      .cls-1, .cls-2, .cls-5, .cls-6 {
        stroke-width: 3px;
      }

      .cls-1, .cls-3, .cls-5, .cls-6 {
        fill: none;
      }

      .cls-2, .cls-7, .cls-4, .cls-8 {
        fill: #fff;
      }

      .cls-7 {
        opacity: .4;
      }

      .cls-7, .cls-9, .cls-10, .cls-11, .cls-12, .cls-13, .cls-14, .cls-15, .cls-16, .cls-17, .cls-8, .cls-18, .cls-19, .cls-20 {
        stroke-width: 0px;
      }

      .cls-3, .cls-4 {
        stroke-width: 2.54px;
      }

      .cls-6 {
        stroke: #fff;
      }

      .cls-9 {
        fill: #f59b69;
      }

      .cls-10 {
        fill: #f9bd94;
      }

      .cls-11 {
        fill: #4d5b85;
      }

      .cls-12 {
        fill: #4dd3e8;
      }

      .cls-13 {
        fill: #ccd0dc;
      }

      .cls-14 {
        fill: #dbf6fa;
      }

      .cls-15 {
        fill: #cce8f6;
      }

      .cls-16 {
        fill: #667296;
      }

      .cls-17 {
        fill: #334373;
      }

      .cls-18 {
        fill: #e5e7ed;
      }

      .cls-19 {
        fill: #001450;
      }

      .cls-20 {
        fill: #008cd2;
      }
    </style>
  </defs>
  <g id="BG">
    <rect class="cls-8" x="-19.57" y="-21.55" width="1959.14" height="1963.1"/>
  </g>
  <g id="Background">
    <g>
      <g>
        <g>
          <rect class="cls-20" x="1248.1" y="1015.46" width="12.3" height="9.95" transform="translate(230.31 2271.83) rotate(-89.84)"/>
          <path class="cls-20" d="m1238.49,1007.12h4.95c.89,0,1.62.72,1.62,1.62v24.95h-8.18v-24.95c0-.89.72-1.62,1.62-1.62Z" transform="translate(217.11 2258.51) rotate(-89.84)"/>
          <rect class="cls-5" x="1293.51" y="980.13" width="12.3" height="80.87" transform="translate(275.47 2317.36) rotate(-89.84)"/>
        </g>
        <g>
          <rect class="cls-20" x="1248.1" y="1032.38" width="12.3" height="9.95" transform="translate(213.39 2288.7) rotate(-89.84)"/>
          <path class="cls-20" d="m1238.49,1024.04h4.95c.89,0,1.62.72,1.62,1.62v24.95h-8.18v-24.95c0-.89.72-1.62,1.62-1.62Z" transform="translate(200.19 2275.38) rotate(-89.84)"/>
          <rect class="cls-5" x="1293.51" y="997.05" width="12.3" height="80.87" transform="translate(258.55 2334.24) rotate(-89.84)"/>
        </g>
        <g>
          <rect class="cls-20" x="1248.1" y="1049.69" width="12.3" height="9.95" transform="translate(196.09 2305.96) rotate(-89.84)"/>
          <path class="cls-20" d="m1238.49,1041.35h4.95c.89,0,1.62.72,1.62,1.62v24.95h-8.18v-24.95c0-.89.72-1.62,1.62-1.62Z" transform="translate(182.88 2292.64) rotate(-89.84)"/>
          <rect class="cls-5" x="1293.51" y="1014.35" width="12.3" height="80.87" transform="translate(241.24 2351.5) rotate(-89.84)"/>
        </g>
        <g>
          <rect class="cls-18" x="812.06" y="1084.18" width="234.2" height="75.41"/>
          <rect class="cls-18" x="839.2" y="814.06" width="174.92" height="196.99"/>
          <path class="cls-13" d="m857.53,700.68h138.91c27.08,0,49.07,21.99,49.07,49.07v10.09c0,41-33.29,74.29-74.29,74.29h-88.46c-41,0-74.29-33.29-74.29-74.29v-10.09c0-27.08,21.99-49.07,49.07-49.07Z"/>
          <path class="cls-19" d="m805.03,1008.83h243.86c28.06,0,50.84,22.78,50.84,50.84v43.11h-345.54v-43.11c0-28.06,22.78-50.84,50.84-50.84Z"/>
          <rect class="cls-11" x="889.12" y="905.2" width="76.44" height="29.73" rx="14.86" ry="14.86"/>
          <g>
            <path class="cls-16" d="m1063.08,760.67c-8.61,7.62-19.93,12.25-32.33,12.25-26.95,0-48.79-21.84-48.79-48.79,0-8.51,2.18-16.51,6.01-23.47h33.3l41.82,60.01Z"/>
            <path class="cls-19" d="m986.14,700.68c-3.78,7.19-5.78,15.27-5.78,23.45,0,27.78,22.6,50.39,50.39,50.39,12.32,0,24.18-4.5,33.39-12.66l-2.12-2.39c-8.63,7.64-19.74,11.85-31.28,11.85-26.02,0-47.19-21.17-47.19-47.19,0-7.94,2.01-15.79,5.81-22.7l.52-.77-3.75.02Z"/>
            <rect class="cls-16" x="1184.94" y="569.98" width="148.38" height="65.52" transform="translate(-132.68 710.32) rotate(-30)"/>
            <rect class="cls-20" x="1233.74" y="580.95" width="12.81" height="65.56" transform="translate(-140.63 703.57) rotate(-30.05)"/>
            <rect class="cls-20" x="1135.4" y="627.56" width="12.81" height="88.19" transform="translate(-182.86 662.11) rotate(-30.05)"/>
            <path class="cls-19" d="m1136.42,594.97h88.28c12.05,0,21.84,9.78,21.84,21.84v52.27c0,12.05-9.78,21.84-21.84,21.84h-88.28v-95.94h0Z" transform="translate(-161.84 681.88) rotate(-30)"/>
            <path class="cls-19" d="m1037.52,793.49c-5.74,1.69-11.81,2.6-18.1,2.6-35.29,0-64-28.71-64-64,0-11.41,3-22.14,8.26-31.43l-3.69.04c-4.96,9.37-7.77,20.05-7.77,31.39,0,37.11,30.08,67.19,67.19,67.19,5.47,0,10.78-.65,15.87-1.89"/>
            <rect class="cls-16" x="1056.8" y="648.25" width="85.15" height="95.86" transform="translate(-200.81 642.96) rotate(-30)"/>
            <rect class="cls-11" x="1290.65" y="974.53" width="15.6" height="99.25"/>
            <rect class="cls-2" x="1286.44" y="1023.97" width="23.93" height="36.67"/>
            <rect class="cls-19" x="1245.47" y="964.23" width="103.6" height="17.84"/>
            <polygon class="cls-13" points="1342.3 964.21 1252.71 964.21 1239.44 846.76 1355.56 846.76 1342.3 964.21"/>
            <path class="cls-13" d="m1368.25,643.56l-15.29,74.89c-6.9,33.79-32.89,58.69-59.77,55.75-29.98-3.28-48.45-37.98-40.89-74.98l15.55-76.16c7.23-35.42,35.57-59.55,63.3-53.89h0c27.73,5.66,44.34,38.96,37.11,74.38Z"/>
            <g>
              <path class="cls-11" d="m1297.6,689.02h0c32.04,0,58.06,26.02,58.06,58.06v99.6h-116.12v-99.6c0-32.04,26.02-58.06,58.06-58.06Z"/>
              <circle class="cls-2" cx="1298.17" cy="750.43" r="48.04" transform="translate(-19.99 1465.16) rotate(-58.5)"/>
              <path class="cls-17" d="m1314.78,721.65c1.58.91,3.61.37,4.53-1.21.91-1.58.37-3.61-1.21-4.53-1.58-.91-3.61-.37-4.53,1.21-.91,1.58-.37,3.61,1.21,4.53Z"/>
              <path class="cls-17" d="m1278.22,784.96c1.58.91,3.61.37,4.53-1.21s.37-3.61-1.21-4.53c-1.58-.91-3.61-.37-4.53,1.21-.91,1.58-.37,3.61,1.21,4.53Z"/>
            </g>
            <g>
              <circle class="cls-11" cx="1318.89" cy="596.16" r="60.44"/>
              <g>
                <circle class="cls-2" cx="1319.09" cy="595.96" r="48.04" transform="translate(500.5 1789.73) rotate(-79.87)"/>
                <path class="cls-17" d="m1324.07,563.1c1.81.27,3.5-.97,3.77-2.78.27-1.81-.97-3.5-2.78-3.77-1.81-.27-3.5.97-3.77,2.78-.27,1.81.97,3.5,2.78,3.77Z"/>
                <path class="cls-17" d="m1313.11,635.38c1.81.27,3.5-.97,3.77-2.78.27-1.81-.97-3.5-2.78-3.77-1.81-.27-3.5.97-3.77,2.78s.97,3.5,2.78,3.77Z"/>
              </g>
            </g>
            <g>
              <path class="cls-16" d="m1060.21,804.13l-61.11-105.84c-15.04-26.04-6.32-59.22,19.46-74.11h0c25.79-14.89,58.88-5.84,73.91,20.2l61.11,105.84"/>
              <g>
                <path class="cls-8" d="m1075.13,809.05c-4.7,0-10.82-.9-13.29-5.17-5.48-9.5,10.67-29.52,35.28-43.73,15.03-8.68,30.82-13.86,42.22-13.86,4.7,0,10.82.9,13.29,5.17,2.54,4.4.4,11.51-5.88,19.53-6.65,8.5-17.09,17.09-29.4,24.2-15.03,8.68-30.82,13.86-42.22,13.86Z"/>
                <path class="cls-19" d="m1139.34,744.79v3c6.08,0,10.34,1.57,11.99,4.42,2.22,3.84.12,10.35-5.76,17.85-6.54,8.35-16.83,16.81-28.97,23.82-14.82,8.55-30.32,13.66-41.47,13.66-6.09,0-10.34-1.57-11.99-4.42-2.22-3.84-.12-10.35,5.76-17.85,6.54-8.35,16.83-16.81,28.97-23.82,14.81-8.55,30.32-13.66,41.47-13.66v-3m0,0c-11.25,0-27.11,4.9-42.97,14.06-25.79,14.89-41.83,35.38-35.83,45.77,2.31,4,7.55,5.92,14.59,5.92,11.25,0,27.11-4.9,42.97-14.06,25.79-14.89,41.83-35.38,35.83-45.77-2.31-4-7.55-5.92-14.59-5.92h0Z"/>
              </g>
            </g>
            <line class="cls-3" x1="998.95" y1="698.26" x2="1091.55" y2="643.3"/>
            <path class="cls-19" d="m998.84,697.82c-14.89-25.79-6.05-58.76,19.73-73.64h0c25.79-14.89,58.76-6.05,73.64,19.73"/>
          </g>
          <g>
            <path class="cls-16" d="m790.88,760.67c8.61,7.62,19.93,12.25,32.33,12.25,26.95,0,48.79-21.84,48.79-48.79,0-8.51-2.18-16.51-6.01-23.47h-33.3l-41.82,60.01Z"/>
            <path class="cls-19" d="m867.82,700.68c3.78,7.19,5.78,15.27,5.78,23.45,0,27.78-22.6,50.39-50.39,50.39-12.32,0-24.18-4.5-33.39-12.66l2.12-2.39c8.63,7.64,19.74,11.85,31.28,11.85,26.02,0,47.19-21.17,47.19-47.19,0-7.94-2.01-15.79-5.81-22.7l-.52-.77,3.75.02Z"/>
            <rect class="cls-16" x="520.65" y="569.98" width="148.38" height="65.52" transform="translate(808.61 1422.16) rotate(-150)"/>
            <rect class="cls-20" x="581.04" y="607.32" width="65.56" height="12.81" transform="translate(-224.8 837.67) rotate(-59.95)"/>
            <rect class="cls-20" x="668.07" y="665.25" width="88.19" height="12.81" transform="translate(-225.84 951.71) rotate(-59.95)"/>
            <path class="cls-19" d="m607.42,594.97h88.28c12.05,0,21.84,9.78,21.84,21.84v52.27c0,12.05-9.78,21.84-21.84,21.84h-88.28v-95.94h0Z" transform="translate(914.74 1530.99) rotate(-150)"/>
            <path class="cls-19" d="m816.44,793.49c5.74,1.69,11.81,2.6,18.1,2.6,35.29,0,64-28.71,64-64,0-11.41-3-22.14-8.26-31.43l3.69.04c4.96,9.37,7.77,20.05,7.77,31.39,0,37.11-30.08,67.19-67.19,67.19-5.47,0-10.78-.65-15.87-1.89"/>
            <rect class="cls-16" x="712.02" y="648.25" width="85.15" height="95.86" transform="translate(1060 1676.4) rotate(-150)"/>
            <rect class="cls-11" x="547.71" y="974.53" width="15.6" height="99.25" transform="translate(1111.03 2048.3) rotate(180)"/>
            <rect class="cls-4" x="543.6" y="1023.97" width="23.93" height="36.67" transform="translate(1111.12 2084.62) rotate(180)"/>
            <rect class="cls-19" x="504.9" y="964.23" width="103.6" height="17.84" transform="translate(1113.39 1946.31) rotate(180)"/>
            <polygon class="cls-13" points="511.67 964.21 601.26 964.21 614.52 846.76 498.4 846.76 511.67 964.21"/>
            <path class="cls-13" d="m485.71,643.56l15.29,74.89c6.9,33.79,32.89,58.69,59.77,55.75,29.98-3.28,48.45-37.98,40.89-74.98l-15.55-76.16c-7.23-35.42-35.57-59.55-63.3-53.89h0c-27.73,5.66-44.34,38.96-37.11,74.38Z"/>
            <g>
              <path class="cls-11" d="m498.31,689.02h116.12v99.6c0,32.04-26.02,58.06-58.06,58.06h0c-32.04,0-58.06-26.02-58.06-58.06v-99.6h0Z" transform="translate(1112.73 1535.7) rotate(180)"/>
              <circle class="cls-2" cx="555.8" cy="750.43" r="48.04" transform="translate(-310.21 401.01) rotate(-31.5)"/>
              <path class="cls-17" d="m539.19,721.65c-1.58.91-3.61.37-4.53-1.21-.91-1.58-.37-3.61,1.21-4.53,1.58-.91,3.61-.37,4.53,1.21.91,1.58.37,3.61-1.21,4.53Z"/>
              <path class="cls-17" d="m575.74,784.96c-1.58.91-3.61.37-4.53-1.21-.91-1.58-.37-3.61,1.21-4.53,1.58-.91,3.61-.37,4.53,1.21s.37,3.61-1.21,4.53Z"/>
            </g>
            <g>
              <circle class="cls-11" cx="535.07" cy="596.16" r="60.44"/>
              <g>
                <circle class="cls-2" cx="534.87" cy="595.96" r="48.04" transform="translate(-96.45 103.32) rotate(-10.13)"/>
                <path class="cls-17" d="m529.89,563.1c-1.81.27-3.5-.97-3.77-2.78-.27-1.81.97-3.5,2.78-3.77,1.81-.27,3.5.97,3.77,2.78.27,1.81-.97,3.5-2.78,3.77Z"/>
                <path class="cls-17" d="m540.86,635.38c-1.81.27-3.5-.97-3.77-2.78-.27-1.81.97-3.5,2.78-3.77,1.81-.27,3.5.97,3.77,2.78s-.97,3.5-2.78,3.77Z"/>
              </g>
            </g>
            <g>
              <path class="cls-16" d="m793.75,804.13l61.11-105.84c15.04-26.04,6.32-59.22-19.46-74.11h0c-25.79-14.89-58.88-5.84-73.91,20.2l-61.11,105.84"/>
              <g>
                <path class="cls-8" d="m778.84,809.28c-11.44,0-27.27-5.19-42.33-13.89-12.33-7.12-22.8-15.74-29.47-24.26-6.33-8.09-8.48-15.3-5.89-19.79,2.52-4.37,8.73-5.29,13.49-5.29,11.44,0,27.27,5.19,42.33,13.89,24.71,14.27,40.91,34.44,35.37,44.04-2.52,4.37-8.73,5.29-13.49,5.29h0Z"/>
                <path class="cls-19" d="m714.63,747.32c11.23,0,26.82,5.13,41.7,13.72,12.2,7.04,22.53,15.54,29.11,23.94,6,7.66,8.11,14.36,5.79,18.37-1.23,2.12-4.37,4.65-12.39,4.65-11.23,0-26.82-5.13-41.7-13.72-12.2-7.04-22.53-15.54-29.11-23.94-6-7.66-8.11-14.36-5.79-18.37,1.23-2.12,4.37-4.65,12.39-4.65m0-2.54c-7.04,0-12.28,1.92-14.59,5.92-6,10.39,10.04,30.89,35.83,45.77,15.86,9.16,31.72,14.06,42.97,14.06,7.04,0,12.28-1.92,14.59-5.92,6-10.39-10.04-30.89-35.83-45.77-15.86-9.16-31.72-14.06-42.97-14.06h0Z"/>
              </g>
            </g>
            <line class="cls-3" x1="855.01" y1="698.26" x2="762.41" y2="643.3"/>
            <path class="cls-19" d="m855.13,697.82c14.89-25.79,6.05-58.76-19.73-73.64h0c-25.79-14.89-58.76-6.05-73.64,19.73"/>
          </g>
          <rect class="cls-19" x="754.13" y="1076.85" width="78.12" height="82.79"/>
          <rect class="cls-19" x="1021.58" y="1076.85" width="78.12" height="82.79"/>
          <rect class="cls-20" x="782.06" y="1133.45" width="22.42" height="14.41"/>
        </g>
        <g>
          <g>
            <rect class="cls-20" x="1215.95" y="1168.07" width="12.3" height="9.95"/>
            <path class="cls-20" d="m1219.62,1146.48h4.95c.89,0,1.62.72,1.62,1.62v24.95h-8.18v-24.95c0-.89.72-1.62,1.62-1.62Z"/>
            <rect class="cls-5" x="1215.95" y="1178.02" width="12.3" height="80.87"/>
          </g>
          <g>
            <rect class="cls-20" x="1080.03" y="1168.07" width="12.3" height="9.95"/>
            <path class="cls-20" d="m1083.7,1146.48h4.95c.89,0,1.62.72,1.62,1.62v24.95h-8.18v-24.95c0-.89.72-1.62,1.62-1.62Z"/>
            <rect class="cls-5" x="1080.03" y="1178.02" width="12.3" height="80.87"/>
          </g>
          <g>
            <rect class="cls-20" x="1052.84" y="1168.07" width="12.3" height="9.95"/>
            <path class="cls-20" d="m1056.51,1146.48h4.95c.89,0,1.62.72,1.62,1.62v24.95h-8.18v-24.95c0-.89.72-1.62,1.62-1.62Z"/>
            <rect class="cls-5" x="1052.84" y="1178.02" width="12.3" height="80.87"/>
          </g>
          <g>
            <rect class="cls-20" x="1107.21" y="1168.07" width="12.3" height="9.95"/>
            <path class="cls-20" d="m1110.88,1146.48h4.95c.89,0,1.62.72,1.62,1.62v24.95h-8.18v-24.95c0-.89.72-1.62,1.62-1.62Z"/>
            <rect class="cls-5" x="1107.21" y="1178.02" width="12.3" height="80.87"/>
          </g>
          <g>
            <rect class="cls-20" x="1134.39" y="1168.07" width="12.3" height="9.95"/>
            <path class="cls-20" d="m1138.07,1146.48h4.95c.89,0,1.62.72,1.62,1.62v24.95h-8.18v-24.95c0-.89.72-1.62,1.62-1.62Z"/>
            <rect class="cls-5" x="1134.39" y="1178.02" width="12.3" height="80.87"/>
          </g>
          <g>
            <rect class="cls-20" x="1161.58" y="1168.07" width="12.3" height="9.95"/>
            <path class="cls-20" d="m1165.25,1146.48h4.95c.89,0,1.62.72,1.62,1.62v24.95h-8.18v-24.95c0-.89.72-1.62,1.62-1.62Z"/>
            <rect class="cls-5" x="1161.58" y="1178.02" width="12.3" height="80.87"/>
          </g>
          <g>
            <rect class="cls-20" x="1188.76" y="1168.07" width="12.3" height="9.95"/>
            <path class="cls-20" d="m1192.44,1146.48h4.95c.89,0,1.62.72,1.62,1.62v24.95h-8.18v-24.95c0-.89.72-1.62,1.62-1.62Z"/>
            <rect class="cls-5" x="1188.76" y="1178.02" width="12.3" height="80.87"/>
          </g>
          <g>
            <rect class="cls-20" x="998.47" y="1168.07" width="12.3" height="9.95"/>
            <path class="cls-20" d="m1002.15,1146.48h4.95c.89,0,1.62.72,1.62,1.62v24.95h-8.18v-24.95c0-.89.72-1.62,1.62-1.62Z"/>
            <rect class="cls-5" x="998.47" y="1178.02" width="12.3" height="80.87"/>
          </g>
          <g>
            <rect class="cls-20" x="1025.66" y="1168.07" width="12.3" height="9.95"/>
            <path class="cls-20" d="m1029.33,1146.48h4.95c.89,0,1.62.72,1.62,1.62v24.95h-8.18v-24.95c0-.89.72-1.62,1.62-1.62Z"/>
            <rect class="cls-5" x="1025.66" y="1178.02" width="12.3" height="80.87"/>
          </g>
          <g>
            <rect class="cls-20" x="1243.15" y="1168.07" width="12.3" height="9.95"/>
            <path class="cls-20" d="m1246.82,1146.48h4.95c.89,0,1.62.72,1.62,1.62v24.95h-8.18v-24.95c0-.89.72-1.62,1.62-1.62Z"/>
            <rect class="cls-5" x="1243.15" y="1178.02" width="12.3" height="80.87"/>
          </g>
          <polygon class="cls-19" points="773 1343.28 1315.08 1343.28 1315.08 1211.88 773 1211.88 773 1239.28 773 1343.28"/>
          <line class="cls-6" x1="1038.23" y1="1245.89" x2="1253" y2="1245.89"/>
          <line class="cls-3" x1="810.19" y1="1233.92" x2="932.14" y2="1233.92"/>
        </g>
        <rect class="cls-7" x="296.15" y="362.53" width="1256.15" height="796.38"/>
        <path class="cls-5" d="m297.28,1341.92V385.82c0-10.08,8.16-18.26,18.24-18.29l1219.63-3.55c10.12-.03,18.34,8.17,18.34,18.29v959.64"/>
        <g>
          <rect class="cls-14" x="1659.35" y="1266.4" width="35.54" height="76.02" transform="translate(3354.24 2608.82) rotate(180)"/>
          <rect class="cls-12" x="1385.01" y="1266.4" width="274.35" height="76.02"/>
          <g>
            <path class="cls-19" d="m1624.34,1302.51c-2.98,0-5.41-2.42-5.41-5.41s2.42-5.41,5.41-5.41,5.41,2.42,5.41,5.41-2.42,5.41-5.41,5.41Z"/>
            <path class="cls-19" d="m1624.34,1322.85l-14.61-19.52h10.7l3.92,4.96,3.92-4.96h10.7l-14.61,19.52Z"/>
          </g>
        </g>
        <g>
          <path class="cls-5" d="m684.75,567.39l193.61-162.57"/>
          <path class="cls-5" d="m758.93,549.57l92.52-78.67"/>
        </g>
        <g>
          <path class="cls-5" d="m1324.11,923.14l193.61-162.57"/>
          <path class="cls-5" d="m1398.29,905.32l92.52-78.67"/>
        </g>
        <g>
          <rect class="cls-14" x="453.43" y="1266.4" width="35.54" height="76.02" transform="translate(942.39 2608.82) rotate(180)"/>
          <rect class="cls-12" x="179.08" y="1266.4" width="274.35" height="76.02"/>
          <g>
            <path class="cls-19" d="m418.41,1302.51c-2.98,0-5.41-2.42-5.41-5.41s2.42-5.41,5.41-5.41,5.41,2.42,5.41,5.41-2.42,5.41-5.41,5.41Z"/>
            <path class="cls-19" d="m418.41,1322.85l-14.61-19.52h10.7l3.92,4.96,3.92-4.96h10.7l-14.61,19.52Z"/>
          </g>
        </g>
        <g>
          <circle class="cls-5" cx="1701.45" cy="1387.96" r="13.87"/>
          <circle class="cls-5" cx="1612.28" cy="1387.96" r="13.87"/>
          <circle class="cls-5" cx="1523.12" cy="1387.96" r="13.87"/>
          <circle class="cls-5" cx="1433.96" cy="1387.96" r="13.87"/>
          <circle class="cls-5" cx="1344.8" cy="1387.96" r="13.87"/>
          <circle class="cls-5" cx="1255.64" cy="1387.96" r="13.87"/>
          <circle class="cls-5" cx="1166.47" cy="1387.96" r="13.87"/>
          <circle class="cls-5" cx="988.15" cy="1387.96" r="13.87"/>
          <circle class="cls-5" cx="898.99" cy="1387.96" r="13.87"/>
          <circle class="cls-5" cx="809.83" cy="1387.96" r="13.87"/>
          <circle class="cls-5" cx="720.66" cy="1387.96" r="13.87"/>
          <circle class="cls-5" cx="631.5" cy="1387.96" r="13.87"/>
          <circle class="cls-5" cx="542.34" cy="1387.96" r="13.87"/>
          <circle class="cls-5" cx="450.92" cy="1387.96" r="13.87"/>
          <circle class="cls-5" cx="361.76" cy="1387.96" r="13.87"/>
          <circle class="cls-5" cx="272.6" cy="1387.96" r="13.87"/>
          <circle class="cls-5" cx="183.43" cy="1387.96" r="13.87"/>
        </g>
        <path class="cls-5" d="m127.7,1343.97h1616.77c24.5,0,44.4,19.89,44.4,44.4h0c0,24.5-19.89,44.4-44.4,44.4H127.7c-1.33,0-2.41-1.08-2.41-2.41v-83.97c0-1.33,1.08-2.41,2.41-2.41Z"/>
        <line class="cls-1" x1="295.94" y1="1159.62" x2="1553.65" y2="1159.62"/>
        <path class="cls-13" d="m1495.37,432.4c9.79,0,17.73-7.94,17.73-17.64s-7.94-17.73-17.73-17.73-17.73,7.94-17.73,17.73,7.93,17.64,17.73,17.64Z"/>
        <path class="cls-13" d="m350.12,439.46c9.79,0,17.73-7.94,17.73-17.64s-7.94-17.73-17.73-17.73-17.73,7.94-17.73,17.73,7.94,17.64,17.73,17.64Z"/>
        <path class="cls-13" d="m1495.37,1118.53c9.79,0,17.73-7.94,17.73-17.64s-7.94-17.73-17.73-17.73-17.73,7.94-17.73,17.73,7.93,17.64,17.73,17.64Z"/>
        <path class="cls-13" d="m350.12,1125.59c9.79,0,17.73-7.94,17.73-17.64s-7.94-17.73-17.73-17.73-17.73,7.94-17.73,17.73,7.94,17.64,17.73,17.64Z"/>
        <path class="cls-3" d="m873.53,1202.25l24.81,139.85s8.76,58.15,26.14,90.15"/>
        <line class="cls-5" x1="637.87" y1="1000.32" x2="778.6" y2="1000.28"/>
        <g>
          <ellipse class="cls-19" cx="840.67" cy="817.23" rx="10.11" ry="12.4"/>
          <path class="cls-10" d="m841.91,737.7s5.22,16.29,7.12,41.13c.73,9.5-3.69,25.56-2.63,46.9.81,16.49,12.91,25.64,9.51,35.84-2.94,8.83-10.74,6.99-13.02,10.89-4.74,8.08.99,11.08-.93,21.07-.18.95-3.8,1.93-4.12,3-.35,1.15,3.21,3.19,2.66,4.5-1.13,2.69-1.31,5.68-1.14,8.82.47,8.55,3.56,18.21-2.96,26.08-9,10.87-38.04,10.02-73.4-2.19-26.49-9.14-34.58,8.68-63.74-15.7-28.12-23.52-49.3-44.76-49.3-44.76l17.06-91.64,111.35-39.62,39.63-26.4,23.93,22.07Z"/>
          <polygon class="cls-9" points="666.91 970.68 780.9 987.28 780.9 963.56 780.9 858.4 666.91 858.4 666.91 970.68"/>
          <path class="cls-9" d="m849.06,781.22c.09-7.52-2.93-25.47-2.93-25.47,0,0-16.28,22.53-25.33,42.66.02,0,22.04-15.56,28.26-17.18Z"/>
          <polygon class="cls-10" points="666.94 988.43 781.03 900.67 780.92 1015.12 666.94 988.43"/>
          <path class="cls-8" d="m593.83,1091.95l-28.97-12.9-40.14-49.78,113.13-28.56,20.7-35.32,130.42.1,24.56,35.22,114.61,30.77s44.84,13.12,44.84,49.04-16.69,63.39-48.96,70.79l1.03,433.07h-403.77l-.96-421.32,73.5-71.11Zm131.87,31.38l.23-.41-.23.07v.34Z"/>
          <path class="cls-8" d="m1040.02,1361.32l-54.72-270.74-117.35,51.77,38.63,237.35c1.62,37.95,18.3,77.83,77.79,80.15l-5.75-.48,7.66.96c37.2,0,101.5-42.13,53.73-99Z"/>
          <path class="cls-8" d="m421.28,1432.62c-55.01,16.45-103.17-40.62-77.69-92.08l21.01-42.44,117.96-229.71c10.7-25.86,36.63-43.82,66.61-42.69,35.27,1.34,64.23,29.62,66.34,64.86.9,14.99-2.99,29.01-10.27,40.71l-4.8-2.42-94.84,171.78,71.19-21.92,24.46,100.08-179.99,53.83Z"/>
          <line class="cls-5" x1="520.9" y1="1426.13" x2="520.5" y2="1234.69"/>
          <path class="cls-10" d="m1128.51,1260.23l61.5-36.32,29.01,58.11-51.32,35.67-39.19-57.46Z"/>
          <g>
            <path class="cls-10" d="m1150.18,1249.63s.64-5.09,3.73-16.76c3.09-11.67,4.69-20.03,7.64-27.77,1.21-3.18,3.36-5.91,6.17-7.83l50.07-34.29,18.41,21.65,19.87,56.54c2.32,6.6.05,13.94-5.59,18.08-14.54,10.65-41.39,30.21-48.51,34.56-2.49,1.41-5.35.38-6.98-.83l-44.81-43.33Z"/>
            <rect class="cls-10" x="1210.93" y="1130.47" width="28.82" height="89.5" rx="14.41" ry="14.41" transform="translate(1485.68 -502.53) rotate(55.02)"/>
          </g>
          <circle class="cls-8" cx="918.71" cy="1100.5" r="67.81"/>
          <path class="cls-8" d="m1170.62,1336.3l-133.09,102.48-98.29-90.19,173.55-97.58c7.15-4.02,16.18-2.09,21.06,4.5l42.05,56.83c5.87,7.93,3.39,19.22-5.27,23.96Z"/>
          <path class="cls-5" d="m925.06,1584.38l-.71-152.09s-5.38-10.6.75.95c24.83,33.98,75.41,34.06,108.73,8.36l135.92-104.82c9.12-4.99,11.73-16.88,5.54-25.23l-41.3-55.73c-5.16-6.96-14.7-8.97-22.23-4.69l-83.71,47.6s-35.42-175.15-41.45-201.28c-4.88-21.14-11.47-54.07-53.19-64.09-31.39-7.53-119.77-32.89-119.77-32.89l-25.87-36.27m-129.34.97l-20.8,35.29-100.67,25.84c-24.67,3.4-45.18,19.8-54.4,42.07l-117.96,229.71-21.01,42.44c-25.48,51.46,22.68,108.53,77.69,92.08l99.59-29.79.41,181.54m-21.37-275.55l20.67-35.31"/>
          <path class="cls-15" d="m737.16,657.87c-47.72-2.36-114.12,17.93-139,90.91-23.83,69.88,22.7,143.21,67.85,160.71,16.16,6.27,34.7,5.48,89.1,3.49,31.8-1.16,48.45-45.36,49.65-75.11,1.58-39.07,43.18-59.63,41.33-84.16-4.03-53.42-43.16-92.59-108.92-95.85Z"/>
          <line class="cls-5" x1="797.54" y1="739.71" x2="824.25" y2="767.79"/>
          <line class="cls-5" x1="827.43" y1="744.19" x2="830.37" y2="759.71"/>
          <path class="cls-9" d="m830.85,892.98c2.06,6.98,8.51,13.53,8.51,13.53,0,0,2.63-.47,4.11-3.78,1.89-4.24-1.37-7.53-1.37-7.53,0,0,4.55-3.66,1.04-10.05-1.15-2.1-1.79-2.91-1.79-2.91,0,0-2.73,7.05-10.49,10.74Z"/>
          <path class="cls-19" d="m848.38,790.86c-5.85,2.35-12.28,8.55-15.27,15.36,0,0,5.4-5.32,14.46-8.02l.82-7.34Z"/>
          <path class="cls-19" d="m846.69,807.27l-.5.65c-4.62,5.4-4.72,14.41.33,19.41l.85-2.07-.68-17.99Z"/>
        </g>
        <g>
          <path class="cls-5" d="m366.07,1585.47h955.92"/>
          <path class="cls-5" d="m231.37,1585.47h111.77"/>
        </g>
      </g>
      <line class="cls-5" x1="637.1" y1="1000.58" x2="778.76" y2="1000.58"/>
    </g>
  </g>
</svg>