<?xml version="1.0" encoding="UTF-8"?>
<svg xmlns="http://www.w3.org/2000/svg" viewBox="0 0 1920 1920">
  <defs>
    <style>
      .cls-1, .cls-2, .cls-3, .cls-4, .cls-5, .cls-6, .cls-7, .cls-8, .cls-9 {
        fill: none;
      }

      .cls-1, .cls-2, .cls-3, .cls-4, .cls-7, .cls-10, .cls-11, .cls-12, .cls-13, .cls-14, .cls-15, .cls-9 {
        stroke-width: 3px;
      }

      .cls-1, .cls-2, .cls-3, .cls-4, .cls-10, .cls-11, .cls-12, .cls-14, .cls-15, .cls-8 {
        stroke-miterlimit: 10;
      }

      .cls-1, .cls-5 {
        stroke: #008cd2;
      }

      .cls-2, .cls-6, .cls-7, .cls-10, .cls-11, .cls-12, .cls-13, .cls-14, .cls-15, .cls-8, .cls-9 {
        stroke: #001450;
      }

      .cls-3 {
        stroke: #4dd3e8;
      }

      .cls-4 {
        stroke: #d93465;
      }

      .cls-5 {
        stroke-linecap: square;
        stroke-width: 6.58px;
      }

      .cls-16 {
        opacity: .8;
      }

      .cls-16, .cls-17, .cls-18, .cls-19, .cls-20, .cls-21, .cls-22, .cls-23, .cls-24, .cls-25, .cls-26, .cls-27, .cls-28, .cls-29, .cls-30, .cls-31, .cls-32 {
        stroke-width: 0px;
      }

      .cls-16, .cls-28 {
        fill: #82422e;
      }

      .cls-6, .cls-8 {
        stroke-width: 2.4px;
      }

      .cls-17 {
        fill-rule: evenodd;
      }

      .cls-17, .cls-15, .cls-31 {
        fill: #001450;
      }

      .cls-10, .cls-13, .cls-22 {
        fill: #dbf6fa;
      }

      .cls-11, .cls-21 {
        fill: #ccd0dc;
      }

      .cls-12, .cls-24 {
        fill: #b8edf6;
      }

      .cls-13, .cls-9 {
        stroke-linecap: round;
        stroke-linejoin: round;
      }

      .cls-14, .cls-29 {
        fill: #fff;
      }

      .cls-18 {
        fill: #f59b69;
      }

      .cls-19 {
        fill: #f9bd94;
      }

      .cls-20 {
        fill: #4d5b85;
      }

      .cls-23 {
        fill: #a5674f;
      }

      .cls-25 {
        fill: #b3b9cb;
      }

      .cls-26 {
        fill: #b6d8f9;
      }

      .cls-27 {
        fill: #667296;
      }

      .cls-30 {
        fill: #e5e7ed;
      }

      .cls-32 {
        fill: #008cd2;
      }
    </style>
  </defs>
  <g id="BG">
    <rect class="cls-29" x="-19.57" y="-21.55" width="1959.14" height="1963.1"/>
  </g>
  <g id="Background">
    <g>
      <g>
        <path class="cls-31" d="m478.58,1481.56l-10.86-103.43,51.52-9.92-1.87,114.17-6.35,12.92-21.86.53-10.58-14.28Z"/>
        <g>
          <g>
            <path class="cls-26" d="m509.21,1446.57h3.77c3.04,0,5.77,1.88,6.85,4.73l7.38,19.42s15.22,3.71,18.61,16.43c3.39,12.72,2.59,17.38,2.59,17.38l-45.02,5.11-37.52-5.11s-1.41-27.03,1.13-32.97c1.7-3.96,4.05-13.6,5.43-19.57.68-2.95,3.3-5.03,6.33-5.03h4.26s26.19-.41,26.19-.41Z"/>
            <rect class="cls-26" x="484.91" y="1440.76" width="24.3" height="13.89" rx="6.94" ry="6.94" transform="translate(994.11 2895.41) rotate(180)"/>
          </g>
          <polyline class="cls-2" points="513.73 1461.82 513.73 1461.82 491.42 1461.82"/>
          <polyline class="cls-2" points="516.93 1469.91 516.93 1469.91 494.62 1469.91"/>
          <polyline class="cls-2" points="522.71 1477.99 522.71 1477.99 500.4 1477.99"/>
          <path class="cls-31" d="m465.86,1512.71s21.52,4.17,39.81,3.71c18.66-.46,32.74-1.95,37.41-2.69,4.67-.74,5.33-4.21,5.33-7.32v-2.22s-29.37,3.38-43.99,3.3c-12.21-.07-38.56-3.3-38.56-3.3v8.53Z"/>
        </g>
      </g>
      <g>
        <path class="cls-31" d="m362.93,1481.56l10.86-103.43-51.52-9.92,1.87,114.17,6.35,12.92,21.86.53,10.58-14.28Z"/>
        <g>
          <g>
            <path class="cls-26" d="m332.3,1446.57h-3.77c-3.04,0-5.77,1.88-6.85,4.73l-7.38,19.42s-15.22,3.71-18.61,16.43c-3.39,12.72-2.59,17.38-2.59,17.38l45.02,5.11,37.52-5.11s1.41-27.03-1.13-32.97c-1.7-3.96-4.05-13.6-5.43-19.57-.68-2.95-3.3-5.03-6.33-5.03h-4.26s-26.19-.41-26.19-.41Z"/>
            <rect class="cls-26" x="332.3" y="1440.76" width="24.3" height="13.89" rx="6.94" ry="6.94"/>
          </g>
          <g>
            <polyline class="cls-2" points="327.78 1461.82 327.78 1461.82 350.09 1461.82"/>
            <polyline class="cls-2" points="324.58 1469.91 324.58 1469.91 346.89 1469.91"/>
            <polyline class="cls-2" points="318.79 1477.99 318.79 1477.99 341.11 1477.99"/>
          </g>
          <path class="cls-31" d="m375.65,1512.71s-21.52,4.17-39.81,3.71c-18.66-.46-32.74-1.95-37.41-2.69-4.67-.74-5.33-4.21-5.33-7.32v-2.22s29.37,3.38,43.99,3.3c12.21-.07,38.56-3.3,38.56-3.3v8.53Z"/>
        </g>
      </g>
      <g>
        <rect class="cls-31" x="725.77" y="506.46" width="11.73" height="33.69" rx="5.86" ry="5.86" transform="translate(1463.27 1046.6) rotate(-180)"/>
        <rect class="cls-31" x="725.77" y="1255.58" width="11.73" height="33.69" rx="5.86" ry="5.86" transform="translate(1463.27 2544.86) rotate(-180)"/>
        <g>
          <path class="cls-14" d="m725.77,1392.45V402.98h-341.48c-7.5,0-13.58,6.51-13.58,14.53v974.94"/>
          <line class="cls-2" x1="678.45" y1="553" x2="446.59" y2="553"/>
          <line class="cls-2" x1="678.45" y1="584.52" x2="446.59" y2="584.52"/>
          <line class="cls-2" x1="678.45" y1="616.04" x2="446.59" y2="616.04"/>
          <line class="cls-2" x1="678.45" y1="989.78" x2="446.59" y2="989.78"/>
          <line class="cls-2" x1="678.45" y1="1021.3" x2="446.59" y2="1021.3"/>
          <line class="cls-2" x1="678.45" y1="1052.82" x2="446.59" y2="1052.82"/>
        </g>
      </g>
      <path class="cls-11" d="m738.25,402.72h389.87c8.17,0,14.81,6.64,14.81,14.81v974.66h-404.68V402.72h0Z"/>
      <rect class="cls-31" x="778.57" y="447.28" width="323.54" height="900.65"/>
      <rect class="cls-24" x="798.71" y="1258.74" width="283.76" height="70.02"/>
      <g>
        <path class="cls-31" d="m832.18,1281.59c0,5.2-4.22,9.42-9.42,9.42s-9.42-4.22-9.42-9.42,4.22-9.42,9.42-9.42,9.42,4.22,9.42,9.42Z"/>
        <path class="cls-31" d="m858.31,1281.59c0,5.2-4.22,9.42-9.42,9.42s-9.42-4.22-9.42-9.42,4.22-9.42,9.42-9.42,9.42,4.22,9.42,9.42Z"/>
        <path class="cls-31" d="m884.43,1281.59c0,5.2-4.22,9.42-9.42,9.42s-9.42-4.22-9.42-9.42,4.22-9.42,9.42-9.42,9.42,4.22,9.42,9.42Z"/>
        <path class="cls-31" d="m910.56,1281.59c0,5.2-4.22,9.42-9.42,9.42s-9.42-4.22-9.42-9.42,4.22-9.42,9.42-9.42,9.42,4.22,9.42,9.42Z"/>
        <path class="cls-31" d="m936.69,1281.59c0,5.2-4.22,9.42-9.42,9.42s-9.42-4.22-9.42-9.42,4.22-9.42,9.42-9.42,9.42,4.22,9.42,9.42Z"/>
        <path class="cls-31" d="m962.82,1281.59c0,5.2-4.22,9.42-9.42,9.42s-9.42-4.22-9.42-9.42,4.22-9.42,9.42-9.42,9.42,4.22,9.42,9.42Z"/>
        <path class="cls-31" d="m988.95,1281.59c0,5.2-4.22,9.42-9.42,9.42s-9.42-4.22-9.42-9.42,4.22-9.42,9.42-9.42,9.42,4.22,9.42,9.42Z"/>
        <path class="cls-31" d="m1015.07,1281.59c0,5.2-4.22,9.42-9.42,9.42s-9.42-4.22-9.42-9.42,4.22-9.42,9.42-9.42,9.42,4.22,9.42,9.42Z"/>
        <path class="cls-31" d="m1041.2,1281.59c0,5.2-4.22,9.42-9.42,9.42s-9.42-4.22-9.42-9.42,4.22-9.42,9.42-9.42,9.42,4.22,9.42,9.42Z"/>
        <path class="cls-31" d="m1067.33,1281.59c0,5.2-4.22,9.42-9.42,9.42s-9.42-4.22-9.42-9.42,4.22-9.42,9.42-9.42,9.42,4.22,9.42,9.42Z"/>
        <path class="cls-31" d="m832.18,1305.9c0,5.2-4.22,9.42-9.42,9.42s-9.42-4.22-9.42-9.42,4.22-9.42,9.42-9.42,9.42,4.22,9.42,9.42Z"/>
        <path class="cls-31" d="m858.31,1305.9c0,5.2-4.22,9.42-9.42,9.42s-9.42-4.22-9.42-9.42,4.22-9.42,9.42-9.42,9.42,4.22,9.42,9.42Z"/>
        <path class="cls-31" d="m884.43,1305.9c0,5.2-4.22,9.42-9.42,9.42s-9.42-4.22-9.42-9.42,4.22-9.42,9.42-9.42,9.42,4.22,9.42,9.42Z"/>
        <path class="cls-31" d="m910.56,1305.9c0,5.2-4.22,9.42-9.42,9.42s-9.42-4.22-9.42-9.42,4.22-9.42,9.42-9.42,9.42,4.22,9.42,9.42Z"/>
        <path class="cls-31" d="m936.69,1305.9c0,5.2-4.22,9.42-9.42,9.42s-9.42-4.22-9.42-9.42,4.22-9.42,9.42-9.42,9.42,4.22,9.42,9.42Z"/>
        <path class="cls-31" d="m962.82,1305.9c0,5.2-4.22,9.42-9.42,9.42s-9.42-4.22-9.42-9.42,4.22-9.42,9.42-9.42,9.42,4.22,9.42,9.42Z"/>
        <path class="cls-31" d="m988.95,1305.9c0,5.2-4.22,9.42-9.42,9.42s-9.42-4.22-9.42-9.42,4.22-9.42,9.42-9.42,9.42,4.22,9.42,9.42Z"/>
        <path class="cls-31" d="m1015.07,1305.9c0,5.2-4.22,9.42-9.42,9.42s-9.42-4.22-9.42-9.42,4.22-9.42,9.42-9.42,9.42,4.22,9.42,9.42Z"/>
        <path class="cls-31" d="m1041.2,1305.9c0,5.2-4.22,9.42-9.42,9.42s-9.42-4.22-9.42-9.42,4.22-9.42,9.42-9.42,9.42,4.22,9.42,9.42Z"/>
        <path class="cls-31" d="m1067.33,1305.9c0,5.2-4.22,9.42-9.42,9.42s-9.42-4.22-9.42-9.42,4.22-9.42,9.42-9.42,9.42,4.22,9.42,9.42Z"/>
      </g>
      <rect class="cls-29" x="798.71" y="470.11" width="283.76" height="41.32"/>
      <line class="cls-8" x1="798.71" y1="581.62" x2="1082.47" y2="581.62"/>
      <g>
        <rect class="cls-29" x="798.71" y="530.1" width="283.76" height="65.68"/>
        <g>
          <rect class="cls-15" x="817.98" y="545.29" width="73.41" height="13.33"/>
          <rect class="cls-15" x="817.98" y="568.36" width="73.41" height="13.33"/>
        </g>
        <g>
          <rect class="cls-15" x="904.38" y="545.29" width="73.41" height="13.33"/>
          <rect class="cls-15" x="904.38" y="568.36" width="73.41" height="13.33"/>
        </g>
        <g>
          <rect class="cls-11" x="990.78" y="545.29" width="73.41" height="13.33"/>
          <rect class="cls-11" x="990.78" y="568.36" width="73.41" height="13.33"/>
        </g>
      </g>
      <g>
        <rect class="cls-29" x="798.71" y="990.44" width="283.76" height="65.68"/>
        <g>
          <rect class="cls-15" x="817.98" y="1005.63" width="73.41" height="13.33"/>
          <rect class="cls-15" x="817.98" y="1028.69" width="73.41" height="13.33"/>
        </g>
        <g>
          <rect class="cls-15" x="904.38" y="1005.63" width="73.41" height="13.33"/>
          <rect class="cls-15" x="904.38" y="1028.69" width="73.41" height="13.33"/>
        </g>
        <g>
          <rect class="cls-11" x="990.78" y="1005.63" width="73.41" height="13.33"/>
          <rect class="cls-11" x="990.78" y="1028.69" width="73.41" height="13.33"/>
        </g>
      </g>
      <g>
        <circle class="cls-10" cx="825.76" cy="490.77" r="8.21"/>
        <circle class="cls-10" cx="871.59" cy="490.77" r="8.21"/>
        <circle class="cls-10" cx="917.42" cy="490.77" r="8.21"/>
        <circle class="cls-10" cx="963.25" cy="490.77" r="8.21"/>
        <circle class="cls-10" cx="1009.08" cy="490.77" r="8.21"/>
        <circle class="cls-10" cx="1054.91" cy="490.77" r="8.21"/>
      </g>
      <g>
        <rect class="cls-29" x="798.71" y="614.6" width="283.76" height="48.36"/>
        <rect class="cls-31" x="816.62" y="630.75" width="91.15" height="18.23"/>
        <g>
          <g>
            <path class="cls-31" d="m981.6,627.06c0,1.59-1.29,2.89-2.89,2.89s-2.89-1.29-2.89-2.89,1.29-2.89,2.89-2.89,2.89,1.29,2.89,2.89Z"/>
            <path class="cls-31" d="m991.93,627.06c0,1.59-1.29,2.89-2.89,2.89s-2.89-1.29-2.89-2.89,1.29-2.89,2.89-2.89,2.89,1.29,2.89,2.89Z"/>
            <path class="cls-31" d="m1002.26,627.06c0,1.59-1.29,2.89-2.89,2.89s-2.89-1.29-2.89-2.89,1.29-2.89,2.89-2.89,2.89,1.29,2.89,2.89Z"/>
            <path class="cls-31" d="m1012.59,627.06c0,1.59-1.29,2.89-2.89,2.89s-2.89-1.29-2.89-2.89,1.29-2.89,2.89-2.89,2.89,1.29,2.89,2.89Z"/>
            <path class="cls-31" d="m1022.92,627.06c0,1.59-1.29,2.89-2.89,2.89s-2.89-1.29-2.89-2.89,1.29-2.89,2.89-2.89,2.89,1.29,2.89,2.89Z"/>
            <path class="cls-31" d="m1033.25,627.06c0,1.59-1.29,2.89-2.89,2.89s-2.89-1.29-2.89-2.89,1.29-2.89,2.89-2.89,2.89,1.29,2.89,2.89Z"/>
            <path class="cls-31" d="m1043.58,627.06c0,1.59-1.29,2.89-2.89,2.89s-2.89-1.29-2.89-2.89,1.29-2.89,2.89-2.89,2.89,1.29,2.89,2.89Z"/>
            <path class="cls-31" d="m1053.91,627.06c0,1.59-1.29,2.89-2.89,2.89s-2.89-1.29-2.89-2.89,1.29-2.89,2.89-2.89,2.89,1.29,2.89,2.89Z"/>
            <path class="cls-31" d="m1064.24,627.06c0,1.59-1.29,2.89-2.89,2.89s-2.89-1.29-2.89-2.89,1.29-2.89,2.89-2.89,2.89,1.29,2.89,2.89Z"/>
          </g>
          <g>
            <path class="cls-31" d="m981.6,635.11c0,1.59-1.29,2.89-2.89,2.89s-2.89-1.29-2.89-2.89,1.29-2.89,2.89-2.89,2.89,1.29,2.89,2.89Z"/>
            <path class="cls-31" d="m991.93,635.11c0,1.59-1.29,2.89-2.89,2.89s-2.89-1.29-2.89-2.89,1.29-2.89,2.89-2.89,2.89,1.29,2.89,2.89Z"/>
            <path class="cls-31" d="m1002.26,635.11c0,1.59-1.29,2.89-2.89,2.89s-2.89-1.29-2.89-2.89,1.29-2.89,2.89-2.89,2.89,1.29,2.89,2.89Z"/>
            <path class="cls-31" d="m1012.59,635.11c0,1.59-1.29,2.89-2.89,2.89s-2.89-1.29-2.89-2.89,1.29-2.89,2.89-2.89,2.89,1.29,2.89,2.89Z"/>
            <path class="cls-31" d="m1022.92,635.11c0,1.59-1.29,2.89-2.89,2.89s-2.89-1.29-2.89-2.89,1.29-2.89,2.89-2.89,2.89,1.29,2.89,2.89Z"/>
            <path class="cls-31" d="m1033.25,635.11c0,1.59-1.29,2.89-2.89,2.89s-2.89-1.29-2.89-2.89,1.29-2.89,2.89-2.89,2.89,1.29,2.89,2.89Z"/>
            <path class="cls-31" d="m1043.58,635.11c0,1.59-1.29,2.89-2.89,2.89s-2.89-1.29-2.89-2.89,1.29-2.89,2.89-2.89,2.89,1.29,2.89,2.89Z"/>
            <path class="cls-31" d="m1053.91,635.11c0,1.59-1.29,2.89-2.89,2.89s-2.89-1.29-2.89-2.89,1.29-2.89,2.89-2.89,2.89,1.29,2.89,2.89Z"/>
            <path class="cls-31" d="m1064.24,635.11c0,1.59-1.29,2.89-2.89,2.89s-2.89-1.29-2.89-2.89,1.29-2.89,2.89-2.89,2.89,1.29,2.89,2.89Z"/>
          </g>
          <g>
            <path class="cls-31" d="m981.6,643.16c0,1.59-1.29,2.89-2.89,2.89s-2.89-1.29-2.89-2.89,1.29-2.89,2.89-2.89,2.89,1.29,2.89,2.89Z"/>
            <path class="cls-31" d="m991.93,643.16c0,1.59-1.29,2.89-2.89,2.89s-2.89-1.29-2.89-2.89,1.29-2.89,2.89-2.89,2.89,1.29,2.89,2.89Z"/>
            <path class="cls-31" d="m1002.26,643.16c0,1.59-1.29,2.89-2.89,2.89s-2.89-1.29-2.89-2.89,1.29-2.89,2.89-2.89,2.89,1.29,2.89,2.89Z"/>
            <path class="cls-31" d="m1012.59,643.16c0,1.59-1.29,2.89-2.89,2.89s-2.89-1.29-2.89-2.89,1.29-2.89,2.89-2.89,2.89,1.29,2.89,2.89Z"/>
            <path class="cls-31" d="m1022.92,643.16c0,1.59-1.29,2.89-2.89,2.89s-2.89-1.29-2.89-2.89,1.29-2.89,2.89-2.89,2.89,1.29,2.89,2.89Z"/>
            <path class="cls-31" d="m1033.25,643.16c0,1.59-1.29,2.89-2.89,2.89s-2.89-1.29-2.89-2.89,1.29-2.89,2.89-2.89,2.89,1.29,2.89,2.89Z"/>
            <path class="cls-31" d="m1043.58,643.16c0,1.59-1.29,2.89-2.89,2.89s-2.89-1.29-2.89-2.89,1.29-2.89,2.89-2.89,2.89,1.29,2.89,2.89Z"/>
            <path class="cls-31" d="m1053.91,643.16c0,1.59-1.29,2.89-2.89,2.89s-2.89-1.29-2.89-2.89,1.29-2.89,2.89-2.89,2.89,1.29,2.89,2.89Z"/>
            <path class="cls-31" d="m1064.24,643.16c0,1.59-1.29,2.89-2.89,2.89s-2.89-1.29-2.89-2.89,1.29-2.89,2.89-2.89,2.89,1.29,2.89,2.89Z"/>
          </g>
          <g>
            <path class="cls-31" d="m981.6,651.21c0,1.59-1.29,2.89-2.89,2.89s-2.89-1.29-2.89-2.89,1.29-2.89,2.89-2.89,2.89,1.29,2.89,2.89Z"/>
            <path class="cls-31" d="m991.93,651.21c0,1.59-1.29,2.89-2.89,2.89s-2.89-1.29-2.89-2.89,1.29-2.89,2.89-2.89,2.89,1.29,2.89,2.89Z"/>
            <path class="cls-31" d="m1002.26,651.21c0,1.59-1.29,2.89-2.89,2.89s-2.89-1.29-2.89-2.89,1.29-2.89,2.89-2.89,2.89,1.29,2.89,2.89Z"/>
            <path class="cls-31" d="m1012.59,651.21c0,1.59-1.29,2.89-2.89,2.89s-2.89-1.29-2.89-2.89,1.29-2.89,2.89-2.89,2.89,1.29,2.89,2.89Z"/>
            <path class="cls-31" d="m1022.92,651.21c0,1.59-1.29,2.89-2.89,2.89s-2.89-1.29-2.89-2.89,1.29-2.89,2.89-2.89,2.89,1.29,2.89,2.89Z"/>
            <path class="cls-31" d="m1033.25,651.21c0,1.59-1.29,2.89-2.89,2.89s-2.89-1.29-2.89-2.89,1.29-2.89,2.89-2.89,2.89,1.29,2.89,2.89Z"/>
            <path class="cls-31" d="m1043.58,651.21c0,1.59-1.29,2.89-2.89,2.89s-2.89-1.29-2.89-2.89,1.29-2.89,2.89-2.89,2.89,1.29,2.89,2.89Z"/>
            <path class="cls-31" d="m1053.91,651.21c0,1.59-1.29,2.89-2.89,2.89s-2.89-1.29-2.89-2.89,1.29-2.89,2.89-2.89,2.89,1.29,2.89,2.89Z"/>
            <path class="cls-31" d="m1064.24,651.21c0,1.59-1.29,2.89-2.89,2.89s-2.89-1.29-2.89-2.89,1.29-2.89,2.89-2.89,2.89,1.29,2.89,2.89Z"/>
          </g>
        </g>
        <rect class="cls-22" x="819.58" y="635.84" width="58.11" height="8.05"/>
      </g>
      <line class="cls-2" x1="421.91" y1="1392.24" x2="1498.07" y2="1392.24"/>
      <g>
        <line class="cls-2" x1="114.77" y1="1513.15" x2="617.17" y2="1513.15"/>
        <line class="cls-2" x1="1167.7" y1="1513.15" x2="1804.28" y2="1513.15"/>
        <line class="cls-2" x1="679.38" y1="1513.15" x2="779.29" y2="1513.15"/>
      </g>
      <rect class="cls-29" x="798.71" y="856.31" width="283.76" height="48.36"/>
      <rect class="cls-29" x="798.71" y="923.4" width="283.76" height="48.36"/>
      <rect class="cls-29" x="798.71" y="1166.79" width="283.76" height="72.75"/>
      <rect class="cls-29" x="798.71" y="1074.85" width="283.76" height="72.75"/>
      <rect class="cls-14" x="837.39" y="1106.09" width="205.89" height="10.27" rx="5.14" ry="5.14"/>
      <circle class="cls-12" cx="976.04" cy="1111.27" r="13.3"/>
      <g>
        <rect class="cls-14" x="837.39" y="1198.8" width="205.89" height="10.27" rx="5.14" ry="5.14"/>
        <circle class="cls-12" cx="906.66" cy="1203.99" r="13.3"/>
      </g>
      <path class="cls-19" d="m425.16,553.58h2.81c18.36,0,33.24,15.7,33.24,35.07v47.27c0,19.37-14.88,35.07-33.24,35.07h-2.81c-18.36,0-33.28-15.7-33.28-35.07v-47.27c.04-19.37,14.92-35.07,33.28-35.07Z"/>
      <path class="cls-18" d="m391.87,670.98l60.62-81.59-60.62-6.53v88.12Z"/>
      <path class="cls-20" d="m331.26,952.98l-16.88,482.38,61.61,1.48,42.26-405.69h13.43l33.8,405.87,60.52.15-.05-481.7"/>
      <line class="cls-5" x1="474.23" y1="763.38" x2="507.99" y2="763.38"/>
      <path class="cls-19" d="m486.27,574.77l4.24-66.18c-11.95-22.59-32.86-39.09-57.6-45.46l-.5-.13c-24.11,4.77-44.49,20.77-54.84,43.07l-5.87,12.65,21.05,66.79c.82,2.6,2.7,4.75,5.17,5.9l45.88,21.44c15.25,6.49,37.56-.92,41.59-24.6.92-10.33.88-13.48.88-13.48Z"/>
      <circle class="cls-31" cx="439.96" cy="551.94" r="5.69"/>
      <circle class="cls-31" cx="477.49" cy="551.93" r="5.27"/>
      <path class="cls-17" d="m448.48,531.91l-.9,1.5-.75-1.5h-17.15c-4.51,0-7.97,3.61-7.97,7.97h28.14v-7.97h-1.35Z"/>
      <path class="cls-17" d="m488.63,539.88h-19.95v-7.97h.3l.3.6.3-.6h19.26"/>
      <path class="cls-31" d="m376.29,493.11c-3.34,8.04-26.66,44.23,12.99,80.48,14.1-13.23,20.73-31.09,21.52-21.66,7.97-8.75-.28-21.84,3.23-30.24,20.23,3.99,36.17,1.79,45.19-2.12l.57-15.22,2.89,14.77c.45.45,12.09,2.34,22.9.36,1.45,3.82,3.14,16.67,2.39,28.68,1.81-18.06,12.53-29.29,1.8-57.48-10.23-22.27-33.12-28.18-52.95-29.14-19.83-.96-45.96,7.73-60.53,31.57Z"/>
      <path class="cls-19" d="m399.71,538.18h0c4.97-.69,9.56,2.78,10.26,7.75l2.19,15.75c.69,4.97-2.78,9.56-7.75,10.26h0c-4.97.69-9.56-2.78-10.26-7.75l-2.19-15.75c-.69-4.97,2.78-9.56,7.75-10.26Z"/>
      <path class="cls-18" d="m625.76,861.64l-26.18,4.25.2-27.29-30.49,21.83c-4,2.87-6.7,6.87-8.02,11.25l-14.94,16.39s1.42,6.86,1.84,8.43c.83,3.07,2.15,5.68,2.15,5.68l26.48-6.11c.58-.08,1.15-.22,1.7-.39l.15-.04h0c.9-.31,1.77-.73,2.57-1.31l44.53-32.68Z"/>
      <path class="cls-19" d="m592.07,836.3l-3.34-15.45-30.37,21.83c-3.74,2.68-6.34,6.34-7.74,10.38l-11.97.99,2.48,11,1.1,16.9,19.61-4.53c2.79.29,5.7-.38,8.16-2.14l26.37-18.32-4.31-20.65Z"/>
      <line class="cls-6" x1="529.77" y1="760.29" x2="530.7" y2="873.77"/>
      <path class="cls-19" d="m422.67,872.93l135.59-11.2,14.98,23.4-151.39,35c-14.8,3.26-30.1-2.81-38.66-15.32"/>
      <rect class="cls-23" x="1558.22" y="586.45" width="61.17" height="50.32" transform="translate(3177.61 1223.22) rotate(180)"/>
      <polygon class="cls-28" points="1619.41 626.94 1558.28 603.35 1558.28 575.55 1619.39 586.45 1619.41 626.94"/>
      <path class="cls-23" d="m1583.48,483.9h18.73c16.08,0,29.14,13.06,29.14,29.14v91.12h-94.66v-73.48c0-25.82,20.96-46.78,46.78-46.78Z" transform="translate(3168.05 1088.05) rotate(180)"/>
      <path class="cls-28" d="m1560.62,571.8c1.53-.31,3.53,0,5.52,0,2.15,0,3.84-.31,5.53,0,8.29,1.23,9.82,3.22,9.82,3.22,0,0-2.3,5.37-14.27,5.37s-15.5-5.37-15.5-5.37c0,0,.77-1.84,8.9-3.22Z"/>
      <path class="cls-20" d="m1562.4,459.06c-17.38,0-30.54,16.1-30.54,29.07v6.41c0,3.4,3.66,5.11,5.88,2.77,2.15-6.73,5.95-11.33,19.73-9.99"/>
      <path class="cls-20" d="m1618.43,475.16v36.78l8.02,20.46,4.15,19.39,6.39-3.63c4.39-1.84,7.28-6.42,7.28-11.53v-40.2c0-4.94-8.03-9.84-9.93-13.99l-15.91-7.28Z"/>
      <path class="cls-20" d="m1619.22,541.23h0c-3.67,0-6.65-2.69-6.65-6.01v-50.3l13.3.69v49.61c0,3.32-2.98,6.01-6.65,6.01Z"/>
      <path class="cls-20" d="m1546.27,479.61h43.08l-7.28,10.71c-3.21,4.72-8.55,7.55-14.26,7.55h0c-5.71,0-11.05-2.83-14.26-7.55l-7.28-10.71Z"/>
      <path class="cls-20" d="m1577.14,486.82c28.5,0,35.43,11.78,35.43,34.77s6.15-2.45,6.65-7.22c1.17-11.2-2.73-33.54-3.32-33.34-.43.14-46.72-3.32-46.72-3.32l-28.84,2.43,36.8,6.69Z"/>
      <rect class="cls-23" x="1621.31" y="527.48" width="19.38" height="31.92" rx="9.69" ry="9.69" transform="translate(3226.11 1184.63) rotate(-176.53)"/>
      <path class="cls-20" d="m1557.67,479.71l86.3,16.72.31.29c0-20.64-17.04-37.66-37.68-37.66h-44.32l-4.61,20.66Z"/>
      <g>
        <path class="cls-21" d="m1640.65,1483.86l-4.96-104.6,50.36-.53-3.7,105.8-10.08,12.05-21.74.53-9.89-13.25Z"/>
        <path class="cls-21" d="m1536.36,1484.34l18.91-103.49-50.36-.53-12.21,104.02,12.04,12.72,21.74.53,9.89-13.25Z"/>
        <path class="cls-31" d="m1684.88,917.51l10.6,535.13h-67.59l-32.39-421h-13.36l-32.12,420.87h-64.84l3.94-535.68"/>
        <line class="cls-5" x1="1542.31" y1="747.77" x2="1508.73" y2="747.77"/>
      </g>
      <polyline class="cls-1" points="1648.09 946.19 1648.09 980.31 1685.5 1018.56"/>
      <polyline class="cls-1" points="1527.46 946.19 1527.46 980.31 1490.05 1018.56"/>
      <path class="cls-23" d="m1385.44,847.02c11.08,9.53,27.9,7.71,36.68-3.97l50.2-77.44-46.79-27.19-49.33,82.75"/>
      <path class="cls-26" d="m1415.59,743.21l26.56-52.78c4.65-11.33,12.38-21.2,22.51-28.07,9.32-6.31,19.53-10.85,28.47-14.5l62.14-25.44h0c19.69,17.41,49.27,17.41,68.95,0h0s74.53,36.68,74.53,36.68l1.79,89.55-9.92,196.23c-.42,7.06-6.63,12.59-14.15,12.59l-177.37.04c-7.7,0-13.94-5.87-13.94-13.11l1.12-192.69-13.23,23.38-57.45-31.87Z"/>
      <line class="cls-2" x1="1487.52" y1="730.2" x2="1486.88" y2="861.58"/>
      <path class="cls-23" d="m1629.68,885.61l68.98-123.74-52.32-33.14-60.27,124.42-129.94-10.08-9.23,25.52,144.34,32.27c14.72,3.24,29.94-2.79,38.45-15.24Z"/>
      <polygon class="cls-16" points="1401.05 779.5 1434.43 835.67 1373.94 825 1401.05 779.5"/>
      <path class="cls-23" d="m1461.54,860.53c3.34-11.26-3.08-23.11-14.34-26.45l-35.75-10.61c-13.35-3.96-27.39,3.65-31.36,17l-2.24,7.55,69,20.48c6.26,1.86,12.84-1.71,14.69-7.97Z"/>
      <path class="cls-26" d="m1631.07,615.53v15.7l-37.88,19.47-16.31-15.81-15.81,12.69-14-12.49.08-17.72c.01-2.71,2.89-4.45,5.3-3.2l24.74,12.87,47.77-15.92c3.01-1,6.12,1.24,6.12,4.41Z"/>
      <polyline class="cls-2" points="1631.07 634.53 1593.19 654 1576.88 638.19 1561.07 650.88 1544.07 635.26"/>
      <path class="cls-26" d="m1697.55,658.51c27.36,13.82,35.43,45.71,27.49,63.02-2.68,5.84-22.12,48.06-31.89,68.44l-71.97-29.9,46.44-106.06"/>
      <g>
        <path class="cls-27" d="m1637.15,1461.95c-.07.14.09,49.08.09,49.08l53.58,2.12s46.58-3.75,46.68-4.61c1.52-12.16-6.85-15.47-20.05-19.69-13.34-11.48-22.24-18.82-22.24-18.82,0,0,6.98-27.1-17.59-27.1-26.57,0-19.52,25.67-19.52,25.67h-8.94s-5.33-9.41-5.33-9.41c-2.43-2.64-6.89-1.49-6.68,2.77Z"/>
        <path class="cls-31" d="m1637.22,1513.11c0-1.8,0-6.58,0-6.58l37.24,4.36c21.25,1.99,41.75.29,62.61-4.24l.58-.13s0,3.41,0,6.69c-44.18,11.04-74.2,3.27-100.43-.11Z"/>
      </g>
      <g>
        <path class="cls-27" d="m1543.7,1461.95c.07.14-.09,49.08-.09,49.08l-53.58,2.12s-46.58-3.75-46.68-4.61c-1.52-12.16,6.85-15.47,20.05-19.69,13.34-11.48,22.24-18.82,22.24-18.82,0,0-6.98-27.1,17.59-27.1,26.57,0,19.52,25.67,19.52,25.67h8.94s5.33-9.41,5.33-9.41c2.43-2.64,6.89-1.49,6.68,2.77Z"/>
        <path class="cls-31" d="m1543.63,1513.11c0-1.8,0-6.58,0-6.58l-37.24,4.36c-21.25,1.99-41.75.29-62.61-4.24l-.58-.13s0,3.41,0,6.69c44.18,11.04,74.2,3.27,100.43-.11Z"/>
      </g>
      <line class="cls-9" x1="833.25" y1="882.22" x2="1047.42" y2="882.22"/>
      <line class="cls-9" x1="833.25" y1="947.58" x2="1047.42" y2="947.58"/>
      <path class="cls-19" d="m548.07,896.03l-30.99-138.22,53.77-18.2,27.82,126.43,68.52-11.13,14.17,15.25-90.12,45.58c-17.38,8.79-38.42-.81-43.17-19.7Z"/>
      <g>
        <path class="cls-25" d="m1236.44,847.68h212.31v13.9h-212.31c-3.84,0-6.95-3.11-6.95-6.95h0c0-3.84,3.11-6.95,6.95-6.95Z" transform="translate(2678.24 1709.26) rotate(-180)"/>
        <g>
          <path class="cls-30" d="m1207.94,861.72h191.6c4.96,0,8.85-4.27,8.38-9.21l-11.62-123.35c-.41-4.33-4.04-7.63-8.38-7.63h-191.6c-4.96,0-8.85,4.27-8.38,9.21l11.62,123.35c.41,4.33,4.04,7.63,8.38,7.63Z"/>
          <rect class="cls-25" x="1274.97" y="788.91" width="35.84" height="12.65" rx="5.75" ry="5.75" transform="translate(2585.78 1590.46) rotate(-180)"/>
        </g>
      </g>
      <rect class="cls-14" x="1143.03" y="861.84" width="305.25" height="25.62" transform="translate(2591.3 1749.3) rotate(180)"/>
      <g>
        <rect class="cls-31" x="1213.25" y="846.8" width="8.65" height="8.65" transform="translate(2435.16 1702.24) rotate(180)"/>
        <rect class="cls-31" x="1226.09" y="846.8" width="8.65" height="8.65" transform="translate(2460.84 1702.24) rotate(180)"/>
      </g>
      <path class="cls-31" d="m1547.27,534.56c3.01,0,5.46,2.44,5.46,5.46,0,3.01-2.44,5.46-5.46,5.46-3.01,0-5.46-2.44-5.46-5.46,0-3.01,2.44-5.46,5.46-5.46Z"/>
      <path class="cls-31" d="m1585.58,534.56c3.01,0,5.46,2.44,5.46,5.46,0,3.01-2.44,5.46-5.46,5.46-3.01,0-5.46-2.44-5.46-5.46,0-3.01,2.44-5.46,5.46-5.46Z"/>
      <path class="cls-31" d="m1556.57,520.99l-.85,1.46-.73-1.46h-16.08c-4.15,0-7.52,3.37-7.52,7.52h26.3s0-7.52,0-7.52h-1.12Z"/>
      <path class="cls-17" d="m1578.15,520.99l.33.58.29-.58h17.94c4.15,0,7.52,3.37,7.52,7.52h-26.3s0-7.52,0-7.52h.23Z"/>
      <path class="cls-18" d="m624.92,861.8l-25.9,4.21.19-27.01-30.17,21.6c-3.96,2.84-6.63,6.8-7.93,11.13l-14.78,16.22s1.4,6.79,1.82,8.34c.82,3.04,2.13,5.62,2.13,5.62l26.2-6.05c.57-.08,1.13-.21,1.69-.39l.15-.03h0c.89-.31,1.75-.72,2.55-1.29l44.06-32.34Z"/>
      <path class="cls-4" d="m1217.72,851.21h-74.82s-32.56,0-44.08-.59c-40.72-2.09-44.21-20.93-44.21-20.93"/>
      <path class="cls-3" d="m1230.5,851.03s-2.92,59.75-87.48,54.33c-66.99-4.29-88.41-34.83-107.37-72.43"/>
      <g>
        <rect class="cls-29" x="798.71" y="681.8" width="283.76" height="48.36"/>
        <rect class="cls-31" x="816.62" y="697.95" width="91.15" height="18.23"/>
        <g>
          <g>
            <path class="cls-31" d="m981.6,694.26c0,1.59-1.29,2.89-2.89,2.89s-2.89-1.29-2.89-2.89,1.29-2.89,2.89-2.89,2.89,1.29,2.89,2.89Z"/>
            <path class="cls-31" d="m991.93,694.26c0,1.59-1.29,2.89-2.89,2.89s-2.89-1.29-2.89-2.89,1.29-2.89,2.89-2.89,2.89,1.29,2.89,2.89Z"/>
            <path class="cls-31" d="m1002.26,694.26c0,1.59-1.29,2.89-2.89,2.89s-2.89-1.29-2.89-2.89,1.29-2.89,2.89-2.89,2.89,1.29,2.89,2.89Z"/>
            <path class="cls-31" d="m1012.59,694.26c0,1.59-1.29,2.89-2.89,2.89s-2.89-1.29-2.89-2.89,1.29-2.89,2.89-2.89,2.89,1.29,2.89,2.89Z"/>
            <path class="cls-31" d="m1022.92,694.26c0,1.59-1.29,2.89-2.89,2.89s-2.89-1.29-2.89-2.89,1.29-2.89,2.89-2.89,2.89,1.29,2.89,2.89Z"/>
            <path class="cls-31" d="m1033.25,694.26c0,1.59-1.29,2.89-2.89,2.89s-2.89-1.29-2.89-2.89,1.29-2.89,2.89-2.89,2.89,1.29,2.89,2.89Z"/>
            <path class="cls-31" d="m1043.58,694.26c0,1.59-1.29,2.89-2.89,2.89s-2.89-1.29-2.89-2.89,1.29-2.89,2.89-2.89,2.89,1.29,2.89,2.89Z"/>
            <path class="cls-31" d="m1053.91,694.26c0,1.59-1.29,2.89-2.89,2.89s-2.89-1.29-2.89-2.89,1.29-2.89,2.89-2.89,2.89,1.29,2.89,2.89Z"/>
            <path class="cls-31" d="m1064.24,694.26c0,1.59-1.29,2.89-2.89,2.89s-2.89-1.29-2.89-2.89,1.29-2.89,2.89-2.89,2.89,1.29,2.89,2.89Z"/>
          </g>
          <g>
            <path class="cls-31" d="m981.6,702.31c0,1.59-1.29,2.89-2.89,2.89s-2.89-1.29-2.89-2.89,1.29-2.89,2.89-2.89,2.89,1.29,2.89,2.89Z"/>
            <path class="cls-31" d="m991.93,702.31c0,1.59-1.29,2.89-2.89,2.89s-2.89-1.29-2.89-2.89,1.29-2.89,2.89-2.89,2.89,1.29,2.89,2.89Z"/>
            <path class="cls-31" d="m1002.26,702.31c0,1.59-1.29,2.89-2.89,2.89s-2.89-1.29-2.89-2.89,1.29-2.89,2.89-2.89,2.89,1.29,2.89,2.89Z"/>
            <path class="cls-31" d="m1012.59,702.31c0,1.59-1.29,2.89-2.89,2.89s-2.89-1.29-2.89-2.89,1.29-2.89,2.89-2.89,2.89,1.29,2.89,2.89Z"/>
            <path class="cls-31" d="m1022.92,702.31c0,1.59-1.29,2.89-2.89,2.89s-2.89-1.29-2.89-2.89,1.29-2.89,2.89-2.89,2.89,1.29,2.89,2.89Z"/>
            <path class="cls-31" d="m1033.25,702.31c0,1.59-1.29,2.89-2.89,2.89s-2.89-1.29-2.89-2.89,1.29-2.89,2.89-2.89,2.89,1.29,2.89,2.89Z"/>
            <path class="cls-31" d="m1043.58,702.31c0,1.59-1.29,2.89-2.89,2.89s-2.89-1.29-2.89-2.89,1.29-2.89,2.89-2.89,2.89,1.29,2.89,2.89Z"/>
            <path class="cls-31" d="m1053.91,702.31c0,1.59-1.29,2.89-2.89,2.89s-2.89-1.29-2.89-2.89,1.29-2.89,2.89-2.89,2.89,1.29,2.89,2.89Z"/>
            <path class="cls-31" d="m1064.24,702.31c0,1.59-1.29,2.89-2.89,2.89s-2.89-1.29-2.89-2.89,1.29-2.89,2.89-2.89,2.89,1.29,2.89,2.89Z"/>
          </g>
          <g>
            <path class="cls-31" d="m981.6,710.36c0,1.59-1.29,2.89-2.89,2.89s-2.89-1.29-2.89-2.89,1.29-2.89,2.89-2.89,2.89,1.29,2.89,2.89Z"/>
            <path class="cls-31" d="m991.93,710.36c0,1.59-1.29,2.89-2.89,2.89s-2.89-1.29-2.89-2.89,1.29-2.89,2.89-2.89,2.89,1.29,2.89,2.89Z"/>
            <path class="cls-31" d="m1002.26,710.36c0,1.59-1.29,2.89-2.89,2.89s-2.89-1.29-2.89-2.89,1.29-2.89,2.89-2.89,2.89,1.29,2.89,2.89Z"/>
            <path class="cls-31" d="m1012.59,710.36c0,1.59-1.29,2.89-2.89,2.89s-2.89-1.29-2.89-2.89,1.29-2.89,2.89-2.89,2.89,1.29,2.89,2.89Z"/>
            <path class="cls-31" d="m1022.92,710.36c0,1.59-1.29,2.89-2.89,2.89s-2.89-1.29-2.89-2.89,1.29-2.89,2.89-2.89,2.89,1.29,2.89,2.89Z"/>
            <path class="cls-31" d="m1033.25,710.36c0,1.59-1.29,2.89-2.89,2.89s-2.89-1.29-2.89-2.89,1.29-2.89,2.89-2.89,2.89,1.29,2.89,2.89Z"/>
            <path class="cls-31" d="m1043.58,710.36c0,1.59-1.29,2.89-2.89,2.89s-2.89-1.29-2.89-2.89,1.29-2.89,2.89-2.89,2.89,1.29,2.89,2.89Z"/>
            <path class="cls-31" d="m1053.91,710.36c0,1.59-1.29,2.89-2.89,2.89s-2.89-1.29-2.89-2.89,1.29-2.89,2.89-2.89,2.89,1.29,2.89,2.89Z"/>
            <path class="cls-31" d="m1064.24,710.36c0,1.59-1.29,2.89-2.89,2.89s-2.89-1.29-2.89-2.89,1.29-2.89,2.89-2.89,2.89,1.29,2.89,2.89Z"/>
          </g>
          <g>
            <path class="cls-31" d="m981.6,718.42c0,1.59-1.29,2.89-2.89,2.89s-2.89-1.29-2.89-2.89,1.29-2.89,2.89-2.89,2.89,1.29,2.89,2.89Z"/>
            <path class="cls-31" d="m991.93,718.42c0,1.59-1.29,2.89-2.89,2.89s-2.89-1.29-2.89-2.89,1.29-2.89,2.89-2.89,2.89,1.29,2.89,2.89Z"/>
            <path class="cls-31" d="m1002.26,718.42c0,1.59-1.29,2.89-2.89,2.89s-2.89-1.29-2.89-2.89,1.29-2.89,2.89-2.89,2.89,1.29,2.89,2.89Z"/>
            <path class="cls-31" d="m1012.59,718.42c0,1.59-1.29,2.89-2.89,2.89s-2.89-1.29-2.89-2.89,1.29-2.89,2.89-2.89,2.89,1.29,2.89,2.89Z"/>
            <path class="cls-31" d="m1022.92,718.42c0,1.59-1.29,2.89-2.89,2.89s-2.89-1.29-2.89-2.89,1.29-2.89,2.89-2.89,2.89,1.29,2.89,2.89Z"/>
            <path class="cls-31" d="m1033.25,718.42c0,1.59-1.29,2.89-2.89,2.89s-2.89-1.29-2.89-2.89,1.29-2.89,2.89-2.89,2.89,1.29,2.89,2.89Z"/>
            <path class="cls-31" d="m1043.58,718.42c0,1.59-1.29,2.89-2.89,2.89s-2.89-1.29-2.89-2.89,1.29-2.89,2.89-2.89,2.89,1.29,2.89,2.89Z"/>
            <path class="cls-31" d="m1053.91,718.42c0,1.59-1.29,2.89-2.89,2.89s-2.89-1.29-2.89-2.89,1.29-2.89,2.89-2.89,2.89,1.29,2.89,2.89Z"/>
            <path class="cls-31" d="m1064.24,718.42c0,1.59-1.29,2.89-2.89,2.89s-2.89-1.29-2.89-2.89,1.29-2.89,2.89-2.89,2.89,1.29,2.89,2.89Z"/>
          </g>
        </g>
        <rect class="cls-22" x="819.58" y="703.04" width="58.11" height="8.05"/>
      </g>
      <g>
        <circle class="cls-2" cx="438.84" cy="551.5" r="15.38"/>
        <line class="cls-2" x1="454.96" y1="551.5" x2="463.84" y2="551.5"/>
        <circle class="cls-2" cx="479.22" cy="551.5" r="15.38"/>
        <line class="cls-2" x1="423" y1="548.05" x2="400.66" y2="533.67"/>
      </g>
      <path class="cls-18" d="m460.63,593.37c-7.61,0-10.99-2.11-15.5-9.44,3.95.85,6.48,1.27,12.12.7,1.41-.14,2.11.14,3.38.7,1.41-.56,2.25-.7,3.38-.7,6.76.7,8.46.14,12.12-.7-4.79,6.76-8.03,9.44-15.5,9.44Z"/>
      <path class="cls-19" d="m668.57,872.71c11.69,1.7,22.55-6.39,24.25-18.08l5.41-37.1c2.02-13.86-7.58-26.73-21.44-28.75l-7.83-1.14-10.43,71.61c-.95,6.49,3.55,12.53,10.05,13.47Z"/>
      <g>
        <path class="cls-31" d="m688.66,759.57l3.4,29.07c.26,2.19.24,4.4-.06,6.59l-7.22,53.31c-.9,6.64-6.57,11.6-13.27,11.6h-35.07c-2.15,0-4.24-.73-5.92-2.08l-11-8.82"/>
        <path class="cls-31" d="m638.4,754.04h43.53c4.2,0,7.42,3.72,6.82,7.88l-11.95,82.61c-.57,3.94-3.94,6.86-7.92,6.86h-44.3c-4.31,0-7.61-3.82-6.99-8.08l11.87-81.53c.65-4.44,4.46-7.74,8.95-7.74Z"/>
        <polygon class="cls-29" points="636.55 761.22 681.95 761.22 669.94 844.22 624.47 844.22 636.55 761.22"/>
        <polygon class="cls-13" points="641.73 767.24 674.68 767.24 671.76 788.03 638.7 788.03 641.73 767.24"/>
        <line class="cls-9" x1="636.42" y1="808.81" x2="668.82" y2="808.81"/>
        <circle class="cls-31" cx="649.45" cy="826.96" r="12.01"/>
        <circle class="cls-31" cx="641.37" cy="798.79" r="3.41"/>
        <circle class="cls-31" cx="653.6" cy="798.79" r="3.41"/>
        <circle class="cls-31" cx="665.83" cy="798.79" r="3.41"/>
      </g>
      <path class="cls-19" d="m695.18,838.08l4.69-30.34c1.86-12.01-4.65-22.83-14.53-24.16l-2.83-.38c-3.5-.47-6.86,2.59-7.52,6.83l-1.98,12.82c-.71,4.61.06,9.23,2.17,12.91l20.01,22.31Z"/>
      <path class="cls-19" d="m560.51,881.24c-6.88-9.61-4.67-22.97,4.94-29.85l30.49-21.83c11.39-8.15,27.23-5.53,35.38,5.86l4.61,6.44-58.84,42.13c-5.34,3.82-12.76,2.59-16.58-2.74Z"/>
      <g>
        <line class="cls-2" x1="430.54" y1="961.91" x2="430.54" y2="1031.04"/>
        <polyline class="cls-2" points="430.81 1014.4 412.46 997.53 412.46 962.1"/>
      </g>
      <polyline class="cls-7" points="1640.87 718.59 1621.19 760.06 1693.16 789.96"/>
      <path class="cls-32" d="m391.87,637.35l-84.9,45.73,8.17,89.22,9.44,176.06c.42,7.55,6.67,13.46,14.23,13.46l179.76.02c7.74,0,14.01-6.27,14.01-14.01l-1.54-163.84-.86,15.76,59.03-16.72s-15.98-58.94-23.26-84.25c-5.13-17.86-29.01-28.13-42.28-34.23l-62.48-27.19h0c-19.48,18.32-49.85,18.32-69.33,0h0Z"/>
      <line class="cls-7" x1="529.59" y1="758.65" x2="530.54" y2="873.57"/>
      <path class="cls-19" d="m379.96,905.06l-66.52-99.34,54.55-27.05,54.69,94.26,130.65-10.13,19.44,22.95-154.67,35.28c-14.8,3.26-29.59-3.45-38.14-15.97Z"/>
      <path class="cls-32" d="m327.53,678.76l55.11,113.06-66.09,32.72s-29.77-56.77-36.26-74.14c-7.5-20.09-.27-57.86,32.87-69.9l14.37-1.74"/>
      <path class="cls-4" d="m650.75,852.81s-8.38,48.07,18.09,72.76c33.98,31.7,109.95-13.17,74.44-45.71-28.15-25.8-72.98,32.67-36.79,76.31,57.32,69.13,205.7,2.27,249.09-124.4"/>
      <polyline class="cls-7" points="360.98 746.04 382.8 790.29 316.49 824.45"/>
      <rect class="cls-29" x="798.71" y="749.07" width="283.76" height="87.81"/>
      <g>
        <path class="cls-31" d="m832.18,780.96c0,5.2-4.22,9.42-9.42,9.42s-9.42-4.22-9.42-9.42,4.22-9.42,9.42-9.42,9.42,4.22,9.42,9.42Z"/>
        <path class="cls-31" d="m858.31,780.96c0,5.2-4.22,9.42-9.42,9.42s-9.42-4.22-9.42-9.42,4.22-9.42,9.42-9.42,9.42,4.22,9.42,9.42Z"/>
        <path class="cls-31" d="m884.43,780.96c0,5.2-4.22,9.42-9.42,9.42s-9.42-4.22-9.42-9.42,4.22-9.42,9.42-9.42,9.42,4.22,9.42,9.42Z"/>
        <path class="cls-31" d="m910.56,780.96c0,5.2-4.22,9.42-9.42,9.42s-9.42-4.22-9.42-9.42,4.22-9.42,9.42-9.42,9.42,4.22,9.42,9.42Z"/>
        <path class="cls-31" d="m936.69,780.96c0,5.2-4.22,9.42-9.42,9.42s-9.42-4.22-9.42-9.42,4.22-9.42,9.42-9.42,9.42,4.22,9.42,9.42Z"/>
        <path class="cls-31" d="m962.82,780.96c0,5.2-4.22,9.42-9.42,9.42s-9.42-4.22-9.42-9.42,4.22-9.42,9.42-9.42,9.42,4.22,9.42,9.42Z"/>
        <path class="cls-31" d="m988.95,780.96c0,5.2-4.22,9.42-9.42,9.42s-9.42-4.22-9.42-9.42,4.22-9.42,9.42-9.42,9.42,4.22,9.42,9.42Z"/>
        <path class="cls-31" d="m1015.07,780.96c0,5.2-4.22,9.42-9.42,9.42s-9.42-4.22-9.42-9.42,4.22-9.42,9.42-9.42,9.42,4.22,9.42,9.42Z"/>
        <path class="cls-31" d="m1041.2,780.96c0,5.2-4.22,9.42-9.42,9.42s-9.42-4.22-9.42-9.42,4.22-9.42,9.42-9.42,9.42,4.22,9.42,9.42Z"/>
        <path class="cls-31" d="m1067.33,780.96c0,5.2-4.22,9.42-9.42,9.42s-9.42-4.22-9.42-9.42,4.22-9.42,9.42-9.42,9.42,4.22,9.42,9.42Z"/>
        <path class="cls-31" d="m832.18,805.26c0,5.2-4.22,9.42-9.42,9.42s-9.42-4.22-9.42-9.42,4.22-9.42,9.42-9.42,9.42,4.22,9.42,9.42Z"/>
        <path class="cls-31" d="m858.31,805.26c0,5.2-4.22,9.42-9.42,9.42s-9.42-4.22-9.42-9.42,4.22-9.42,9.42-9.42,9.42,4.22,9.42,9.42Z"/>
        <path class="cls-31" d="m884.43,805.26c0,5.2-4.22,9.42-9.42,9.42s-9.42-4.22-9.42-9.42,4.22-9.42,9.42-9.42,9.42,4.22,9.42,9.42Z"/>
        <path class="cls-31" d="m910.56,805.26c0,5.2-4.22,9.42-9.42,9.42s-9.42-4.22-9.42-9.42,4.22-9.42,9.42-9.42,9.42,4.22,9.42,9.42Z"/>
        <path class="cls-31" d="m936.69,805.26c0,5.2-4.22,9.42-9.42,9.42s-9.42-4.22-9.42-9.42,4.22-9.42,9.42-9.42,9.42,4.22,9.42,9.42Z"/>
        <path class="cls-31" d="m962.82,805.26c0,5.2-4.22,9.42-9.42,9.42s-9.42-4.22-9.42-9.42,4.22-9.42,9.42-9.42,9.42,4.22,9.42,9.42Z"/>
        <path class="cls-31" d="m988.95,805.26c0,5.2-4.22,9.42-9.42,9.42s-9.42-4.22-9.42-9.42,4.22-9.42,9.42-9.42,9.42,4.22,9.42,9.42Z"/>
        <path class="cls-31" d="m1015.07,805.26c0,5.2-4.22,9.42-9.42,9.42s-9.42-4.22-9.42-9.42,4.22-9.42,9.42-9.42,9.42,4.22,9.42,9.42Z"/>
        <path class="cls-31" d="m1041.2,805.26c0,5.2-4.22,9.42-9.42,9.42s-9.42-4.22-9.42-9.42,4.22-9.42,9.42-9.42,9.42,4.22,9.42,9.42Z"/>
        <path class="cls-31" d="m1067.33,805.26c0,5.2-4.22,9.42-9.42,9.42s-9.42-4.22-9.42-9.42,4.22-9.42,9.42-9.42,9.42,4.22,9.42,9.42Z"/>
      </g>
    </g>
  </g>
</svg>