<?xml version="1.0" encoding="UTF-8"?>
<svg xmlns="http://www.w3.org/2000/svg" viewBox="0 0 1920 1920">
  <defs>
    <style>
      .cls-1, .cls-2, .cls-3, .cls-4, .cls-5 {
        fill: none;
      }

      .cls-1, .cls-2, .cls-3, .cls-4, .cls-5, .cls-6 {
        stroke-miterlimit: 10;
      }

      .cls-1, .cls-2, .cls-3, .cls-6 {
        stroke-width: 3px;
      }

      .cls-1, .cls-2, .cls-4, .cls-6 {
        stroke-linecap: round;
      }

      .cls-1, .cls-3, .cls-4, .cls-5 {
        stroke: #001450;
      }

      .cls-2, .cls-6 {
        stroke: #008cd2;
      }

      .cls-4, .cls-5 {
        stroke-width: 2.13px;
      }

      .cls-6, .cls-7 {
        fill: #001450;
      }

      .cls-8 {
        fill: #f9bd94;
      }

      .cls-8, .cls-9, .cls-10, .cls-11, .cls-12, .cls-13, .cls-14, .cls-15, .cls-16, .cls-17, .cls-18, .cls-7, .cls-19 {
        stroke-width: 0px;
      }

      .cls-9 {
        fill: #4d5b85;
      }

      .cls-10 {
        fill: #99d1ed;
      }

      .cls-11 {
        fill: #d29871;
      }

      .cls-12 {
        fill: #ccd0dc;
      }

      .cls-13 {
        fill: #dbf6fa;
      }

      .cls-14 {
        fill: #bc734b;
      }

      .cls-15 {
        fill: #b3b9cb;
      }

      .cls-16 {
        fill: #667296;
      }

      .cls-17 {
        fill: #fff;
      }

      .cls-18 {
        fill: #004dad;
      }

      .cls-19 {
        fill: #008cd2;
      }
    </style>
  </defs>
  <g id="BG">
    <rect class="cls-17" x="-19.57" y="-21.55" width="1959.14" height="1963.1"/>
  </g>
  <g id="Background">
    <g>
      <path class="cls-19" d="m215.93,618.92v159.88h49.05v-159.88h-49.05Zm24.53,112.39c-4.31,0-7.8-3.49-7.8-7.79s3.49-7.79,7.8-7.79,7.79,3.48,7.79,7.79-3.49,7.79-7.79,7.79Zm17.67-28.18h-35.35v-75.7h35.35v75.7Z"/>
      <path class="cls-19" d="m275.27,618.92v159.88h49.05v-159.88h-49.05Zm24.53,112.39c-4.31,0-7.8-3.49-7.8-7.79s3.49-7.79,7.8-7.79,7.79,3.48,7.79,7.79-3.49,7.79-7.79,7.79Zm17.67-28.18h-35.35v-75.7h35.35v75.7Z"/>
      <rect class="cls-12" x="863.58" y="1107.15" width="28.81" height="337.11"/>
      <path class="cls-19" d="m393.94,433.17v159.88h49.05v-159.88h-49.05Zm24.53,112.39c-4.31,0-7.8-3.49-7.8-7.79s3.49-7.79,7.8-7.79,7.79,3.48,7.79,7.79-3.49,7.79-7.79,7.79Zm17.67-28.18h-35.35v-75.7h35.35v75.7Z"/>
      <g>
        <path class="cls-3" d="m275.27,433.17v159.88h49.05v-159.88h-49.05Zm24.53,112.39c-4.31,0-7.8-3.49-7.8-7.79s3.49-7.79,7.8-7.79,7.79,3.48,7.79,7.79-3.49,7.79-7.79,7.79Zm17.67-28.18h-35.35v-75.7h35.35v75.7Z"/>
        <path class="cls-3" d="m215.93,433.17v159.88h49.05v-159.88h-49.05Zm24.53,112.39c-4.31,0-7.8-3.49-7.8-7.79s3.49-7.79,7.8-7.79,7.79,3.48,7.79,7.79-3.49,7.79-7.79,7.79Zm17.67-28.18h-35.35v-75.7h35.35v75.7Z"/>
        <path class="cls-1" d="m334.6,433.17v159.88h49.05v-159.88h-49.05Zm24.53,112.39c-4.31,0-7.8-3.49-7.8-7.79s3.49-7.79,7.8-7.79,7.79,3.48,7.79,7.79-3.49,7.79-7.79,7.79Zm17.67-28.18h-35.35v-75.7h35.35v75.7Z"/>
      </g>
      <g>
        <path class="cls-1" d="m1741.3,1522.06H178.7V423.09c0-8.83,7.16-15.98,15.98-15.98h442.87c8.83,0,15.98,7.16,15.98,15.98v105"/>
        <line class="cls-1" x1="178.7" y1="593.04" x2="502.85" y2="593.04"/>
        <line class="cls-3" x1="178.7" y1="778.85" x2="376.03" y2="778.85"/>
        <line class="cls-3" x1="178.7" y1="1150.45" x2="361.79" y2="1150.45"/>
        <line class="cls-3" x1="178.7" y1="1336.26" x2="361.79" y2="1336.26"/>
        <line class="cls-3" x1="178.7" y1="964.65" x2="361.79" y2="964.65"/>
      </g>
      <g>
        <path class="cls-3" d="m1235.15,1100.45h201.1c9.68,0,17.54,7.86,17.54,17.54v404.07h-236.17v-404.07c0-9.68,7.86-17.54,17.54-17.54Z"/>
        <rect class="cls-3" x="1243.95" y="1124.92" width="183.51" height="88.49"/>
        <circle class="cls-3" cx="1335.7" cy="1169.16" r="8.56"/>
        <rect class="cls-3" x="1243.95" y="1238.59" width="183.51" height="88.49"/>
        <circle class="cls-3" cx="1335.7" cy="1282.83" r="8.56"/>
        <rect class="cls-3" x="1243.95" y="1352.26" width="183.51" height="169.8"/>
        <circle class="cls-3" cx="1335.7" cy="1396.5" r="8.56"/>
      </g>
      <path class="cls-7" d="m990.75,1045.15h-222.23c-20.58,0-37.45-16.32-38.14-36.89l-12.69-381.19c-.72-21.56,16.57-39.43,38.14-39.43h247.61c21.57,0,38.86,17.87,38.14,39.43l-12.69,381.19c-.68,20.57-17.56,36.89-38.14,36.89Z"/>
      <rect class="cls-7" x="738.29" y="1093.48" width="280.07" height="75.68"/>
      <g>
        <rect class="cls-7" x="854.67" y="1254.13" width="46.97" height="189.58" transform="translate(1756.3 2697.84) rotate(180)"/>
        <path class="cls-7" d="m696.37,1471.92v14.21h16.32v-9.63c0-1.65,1.2-3.04,2.83-3.29l165.63-24.83-3-20.02-165.66,24.83c-9.27,1.39-16.13,9.35-16.13,18.73Z"/>
        <circle class="cls-7" cx="705.6" cy="1501.58" r="22.74"/>
        <path class="cls-7" d="m1065.95,1471.92v14.21h-16.32v-9.63c0-1.65-1.2-3.04-2.83-3.29l-165.63-24.83,3-20.02,165.66,24.83c9.27,1.39,16.13,9.35,16.13,18.73Z"/>
        <circle class="cls-7" cx="1056.71" cy="1501.58" r="22.74"/>
        <circle class="cls-7" cx="878.15" cy="1501.58" r="22.74"/>
        <rect class="cls-7" x="868.3" y="1427.28" width="19.7" height="72.34" transform="translate(1756.3 2926.91) rotate(180)"/>
      </g>
      <circle class="cls-18" cx="669.84" cy="1113.6" r="68.43"/>
      <polygon class="cls-18" points="731.95 1100.31 766.79 1256.68 812.29 1449.81 745.71 1466.1 604.24 1133.13 731.95 1100.31"/>
      <polygon class="cls-18" points="948.99 1099.43 925.54 1460.74 1010.92 1457.84 1081.07 1131.64 948.99 1099.43"/>
      <circle class="cls-18" cx="1015.94" cy="1113.6" r="68.43"/>
      <g>
        <path class="cls-7" d="m1010.92,1522.34s-24.64,5.18-45.59,5.54-41.84-5.54-41.84-5.54c-1.43-6.39-2.59-12.18-2.59-12.18l12.44-63.03c1.34-7.72,8.13-13.86,16.9-15.19,2.3-.36,4.87-.57,7.72-.57,15.46,0,24.29,12,24.29,12l30.67,63.99s.27,7.32-2.01,14.98Z"/>
        <g>
          <polyline class="cls-2" points="931.39 1488.11 952.11 1465.8 952.11 1437.21"/>
          <polyline class="cls-2" points="966.31 1437.21 970.28 1465.8 995.64 1488.11"/>
          <line class="cls-2" x1="945.21" y1="1465.8" x2="975.89" y2="1465.8"/>
          <line class="cls-2" x1="975.89" y1="1455.15" x2="945.21" y2="1455.15"/>
          <line class="cls-2" x1="945.21" y1="1444.5" x2="975.89" y2="1444.5"/>
        </g>
      </g>
      <circle class="cls-11" cx="879.53" cy="614.61" r="37.65"/>
      <circle class="cls-14" cx="879.53" cy="538.45" r="37.65"/>
      <polygon class="cls-11" points="917.17 616.53 841.88 616.24 841.88 538.45 917.17 538.45 917.17 616.53"/>
      <polygon class="cls-8" points="917.17 616.53 841.88 616.24 841.88 570.94 917.17 602.86 917.17 616.53"/>
      <ellipse class="cls-13" cx="875.68" cy="969.79" rx="124.14" ry="123.68"/>
      <polygon class="cls-18" points="718.68 1134.04 859.67 1106.01 808.14 963.88 631.39 1056.72 718.68 1134.04"/>
      <polygon class="cls-18" points="996.94 1179.32 874.16 1105.78 993.77 981.61 1062.92 1063.82 996.94 1179.32"/>
      <circle class="cls-10" cx="876.2" cy="767.49" r="123.75"/>
      <rect class="cls-13" x="751.52" y="767.49" width="247.49" height="202.17"/>
      <line class="cls-1" x1="886.11" y1="786.27" x2="886.11" y2="959.36"/>
      <line class="cls-1" x1="874.17" y1="814.39" x2="874.17" y2="883.08"/>
      <circle class="cls-10" cx="994.58" cy="677.56" r="58.31"/>
      <polygon class="cls-10" points="1046.8 651.58 1118.2 818.39 1044.48 854.24 949.17 714.13 1046.8 651.58"/>
      <circle class="cls-10" cx="757.79" cy="677.56" r="58.31"/>
      <polygon class="cls-10" points="705.57 651.58 634.17 818.39 707.89 854.24 803.2 714.13 705.57 651.58"/>
      <path class="cls-13" d="m879.96,625.49v-16.44l-40.03-35.75c-4.1-3.66-10.59-.64-10.44,4.85l.36,12.44c.06,2.09,1.15,4,2.92,5.12l47.19,29.78Z"/>
      <path class="cls-13" d="m879.46,625.49v-16.44s40.03-35.75,40.03-35.75c4.1-3.66,10.59-.64,10.44,4.85l-.36,12.44c-.06,2.09-1.15,4-2.92,5.12l-47.19,29.78Z"/>
      <polygon class="cls-13" points="1000.12 767.49 752.45 767.49 741.48 682.72 738.29 622.6 843.79 587.85 881.05 616.61 916.82 587.64 1018.36 624.34 1000.12 767.49"/>
      <polyline class="cls-1" points="875.16 614.57 863.7 630.6 833.99 595.71"/>
      <polyline class="cls-1" points="926.7 595.71 896.99 630.6 885.53 614.57 885.53 754.67"/>
      <line class="cls-1" x1="875.16" y1="636.53" x2="875.16" y2="702.47"/>
      <path class="cls-8" d="m914.5,914.76h86.32v.56c0,22.94-18.63,41.57-41.57,41.57h-17.64c-14.97,0-27.12-12.15-27.12-27.12v-15h0Z" transform="translate(1915.33 1871.65) rotate(180)"/>
      <line class="cls-5" x1="1010.92" y1="682.72" x2="999.95" y2="767.49"/>
      <line class="cls-5" x1="741.48" y1="682.72" x2="752.45" y2="767.49"/>
      <polygon class="cls-8" points="950.62 938.24 999.09 881.73 1035.6 929.28 996.24 967.15 950.62 938.24"/>
      <circle class="cls-10" cx="1081.07" cy="835.77" r="41"/>
      <path class="cls-13" d="m1116.37,853.7l-119.61,113.73s12.79-27.22-19.44-46.84c-12.01-7.31-20.62-8.12-20.62-8.12l16.31-23.89,5.86-1.7,77.32-97.64,60.18,64.46Z"/>
      <line class="cls-4" x1="1036.93" y1="814.47" x2="1030.49" y2="833.68"/>
      <polygon class="cls-8" points="814.57 919.39 758.81 870.06 729.16 922.16 773.34 954.27 814.57 919.39"/>
      <rect class="cls-18" x="787.56" y="999.3" width="187.42" height="106.67"/>
      <circle class="cls-10" cx="671.3" cy="835.77" r="41"/>
      <path class="cls-8" d="m796.19,914.76h17.64c22.94,0,41.57,18.63,41.57,41.57v.56h-86.32v-15c0-14.97,12.15-27.12,27.12-27.12Z"/>
      <path class="cls-13" d="m652.48,872.19l117.57,85.08s-7.07-22.57,25.47-38.5c12.63-6.18,18.21-5.42,18.21-5.42l-19.43-21.43-6.04-.88-89.98-86.12-45.81,67.27Z"/>
      <g>
        <path class="cls-1" d="m770.05,957.27s-7.07-22.57,25.47-38.5c7.8-3.82,12.92-4.99,15.69-5.32,1-.12,1.43-1.31.76-2.05l-17.66-19.48-6.04-.88-89.98-86.12"/>
        <path class="cls-1" d="m794.31,891.92l-6.04-.88s-21.32,1.46-33.37,21.78"/>
      </g>
      <g>
        <path class="cls-1" d="m998.13,957.27s7.07-22.57-25.47-38.5c-7.8-3.82-12.92-4.99-15.69-5.32-1-.12-1.43-1.31-.76-2.05l17.66-19.48,6.04-.88,89.98-86.12"/>
        <path class="cls-1" d="m973.87,891.92l6.04-.88s21.32,1.46,33.37,21.78"/>
      </g>
      <line class="cls-4" x1="712.1" y1="808.62" x2="721.11" y2="826.76"/>
      <path class="cls-7" d="m1501.24,1522.06h-23.95v-455.83c0-34.95-28.44-63.39-63.39-63.39H370.2v519.22h-23.95v-543.17h1067.65c48.16,0,87.34,39.18,87.34,87.34v455.83Z"/>
      <g>
        <rect class="cls-12" x="363.34" y="625.49" width="467.8" height="278.87"/>
        <rect class="cls-15" x="571.51" y="691.4" width="51.48" height="284.9"/>
        <rect class="cls-15" x="488.04" y="956.22" width="218.41" height="22.66"/>
      </g>
      <g>
        <rect class="cls-12" x="940.99" y="625.49" width="467.8" height="278.87"/>
        <rect class="cls-15" x="1149.15" y="691.4" width="51.48" height="284.9"/>
        <rect class="cls-15" x="1065.69" y="956.15" width="218.41" height="22.66"/>
      </g>
      <rect class="cls-16" x="756.27" y="956.82" width="259.67" height="22.03"/>
      <path class="cls-7" d="m945.99,500.9h-133.33v-47.71c0-27.09,22.04-49.12,49.12-49.12h35.08c27.09,0,49.13,22.04,49.13,49.12v47.71Zm-126.99-6.34h120.65v-41.37c0-23.59-19.19-42.79-42.79-42.79h-35.08c-23.59,0-42.79,19.2-42.79,42.79v41.37Z"/>
      <path class="cls-8" d="m933.18,527.65c-.35,14.58-8.83,27.73-21.95,34.1-9.91,4.82-21.67,9.2-31.7,9.2s-21.79-4.38-31.7-9.2c-13.12-6.38-21.6-19.52-21.95-34.1l-1.8-69.02c-.56-21.64,16.82-39.48,38.47-39.48h33.96c21.65,0,39.03,17.85,38.47,39.48l-1.8,69.02Z"/>
      <path class="cls-7" d="m841.39,475.23h24.46v7.68h-32.14c0-4.24,3.44-7.68,7.68-7.68Z"/>
      <g>
        <rect class="cls-8" x="928.67" y="481.21" width="18.27" height="37.98" rx="9.14" ry="9.14"/>
        <rect class="cls-8" x="812.11" y="481.21" width="18.27" height="37.98" rx="9.14" ry="9.14"/>
      </g>
      <path class="cls-7" d="m893.76,475.23h32.14v7.68h-24.46c-4.24,0-7.68-3.44-7.68-7.68h0Z" transform="translate(1819.66 958.14) rotate(-180)"/>
      <path class="cls-9" d="m879.52,400.23c9.49,0,18.4-2.6,25.17-5.34,6.07-2.46,12.62,2.33,12.01,8.85-1.5,16.05-6.98,39.08-26.07,39.08-29.31,0-11.11-42.59-11.11-42.59Z"/>
      <path class="cls-9" d="m863.83,403.06c9.34-1.64,17.68-5.73,23.88-9.6,5.56-3.47,12.83.12,13.35,6.65,1.29,16.07.27,38.05-18.54,41.35-28.87,5.05-18.69-38.39-18.69-38.39Z"/>
      <rect class="cls-9" x="847.05" y="400.23" width="64.94" height="42.72" rx="21.36" ry="21.36"/>
      <path class="cls-9" d="m836.89,443.31c0-4.23,4.27-7.11,8.2-5.54,5.79,2.32,13.58,4.88,19.73,4.88,11.23,0,14.71-8.55,14.71-8.55l.11-22.93c-31.16,0-55.57-.21-55.57,49.28l.59,36.87h12.24v-54.02Z"/>
      <path class="cls-9" d="m922.37,443.31c0-4.23-4.27-7.11-8.2-5.54-5.79,2.32-13.58,4.88-19.73,4.88-11.23,0-14.71-8.55-14.71-8.55l-.11-22.93c31.16,0,55.57-.21,55.57,49.28l-.59,36.87h-12.24v-54.02Z"/>
      <path class="cls-9" d="m913.53,528.9s-8.83-9.72-33.89-9.72h-.11c-25.06,0-33.9,9.72-33.9,9.72,0,0-10.67,9.54-19.78-2.32l.02,1.07c.35,14.58,8.83,27.72,21.96,34.09,9.9,4.82,21.66,9.2,31.7,9.2s21.8-4.38,31.7-9.2c13.12-6.37,21.6-19.51,21.96-34.09l.02-.94c-9.09,11.75-19.68,2.19-19.68,2.19Zm-9.84,20.79c0,4.32-3.5,7.83-7.83,7.83h-.29c-4.33,0-7.83-3.52-7.83-7.83v-.91h-15.23v.91c0,4.32-3.5,7.83-7.83,7.83h-.29c-4.32,0-7.83-3.52-7.83-7.83v-9.85c-.06-.46-.1-.92-.1-1.4h0c0-5.72,4.62-10.35,10.34-10.35h26.57c5.51,0,10.02,4.33,10.33,9.77.01.19.01.38.01.57v11.26Z"/>
      <g>
        <path class="cls-7" d="m816.79,474.1h6.42v47.26h-6.42c-7.29,0-13.21-5.92-13.21-13.21v-20.85c0-7.29,5.92-13.21,13.21-13.21Z"/>
        <rect class="cls-7" x="817.12" y="471.68" width="8.91" height="52.12" rx="3.34" ry="3.34"/>
      </g>
      <g>
        <path class="cls-7" d="m949.37,474.1h6.42v47.26h-6.42c-7.29,0-13.21-5.92-13.21-13.21v-20.85c0-7.29,5.92-13.21,13.21-13.21Z" transform="translate(1891.95 995.47) rotate(180)"/>
        <rect class="cls-7" x="933.34" y="471.68" width="8.91" height="52.12" rx="3.34" ry="3.34" transform="translate(1875.6 995.47) rotate(180)"/>
      </g>
      <path class="cls-7" d="m851.89,541.58c-12.58,0-24.38-6.44-34.13-18.63-7.19-9-10.74-17.9-10.89-18.27-.63-1.59.16-3.39,1.75-4.02,1.59-.63,3.39.16,4.02,1.75.18.46,13.4,32.98,39.25,32.98,1.71,0,3.1,1.39,3.1,3.1s-1.39,3.1-3.1,3.1Z"/>
      <circle class="cls-7" cx="856.54" cy="492.47" r="5.39"/>
      <circle class="cls-7" cx="903.68" cy="492.47" r="5.39"/>
      <g>
        <path class="cls-11" d="m899.6,534.76l-39.29,2.66s6.72,7.26,20.18,7.26,19.1-9.92,19.1-9.92Z"/>
        <path class="cls-11" d="m899.6,534.76s-5.11,3.72-19.11,3.72-20.18-1.05-20.18-1.05c0,0,9.36-3.93,17.57-4.53l2.09,1.91,2.07-1.91c8.21.66,17.57,1.87,17.57,1.87Z"/>
      </g>
      <g>
        <path class="cls-3" d="m917.77,503.21h-23.33c-3.58,0-6.6-2.51-7.03-5.84l-1.01-7.88c-.51-3.95,2.78-7.43,7.03-7.43h25.36c4.25,0,7.54,3.48,7.03,7.43l-1.01,7.88c-.43,3.33-3.45,5.84-7.03,5.84Z"/>
        <path class="cls-3" d="m842.46,503.21h23.33c3.58,0,6.6-2.51,7.03-5.84l1.01-7.88c.51-3.95-2.78-7.43-7.03-7.43h-25.36c-4.25,0-7.54,3.48-7.03,7.43l1.01,7.88c.43,3.33,3.45,5.84,7.03,5.84Z"/>
        <line class="cls-3" x1="873.83" y1="489.49" x2="886.4" y2="489.49"/>
      </g>
      <g>
        <polyline class="cls-3" points="1002.02 838.46 1002.02 691.4 1347.77 691.4 1347.77 838.46"/>
        <line class="cls-3" x1="1347.77" y1="691.4" x2="1392.46" y2="641.83"/>
        <line class="cls-3" x1="1002.02" y1="691.4" x2="957.33" y2="641.83"/>
      </g>
      <g>
        <polyline class="cls-3" points="424.37 838.46 424.37 691.4 770.13 691.4 770.13 838.46"/>
        <line class="cls-3" x1="770.13" y1="691.4" x2="814.81" y2="641.83"/>
        <line class="cls-3" x1="424.37" y1="691.4" x2="379.68" y2="641.83"/>
      </g>
      <g>
        <path class="cls-7" d="m730.47,1522.34s24.64,5.18,45.59,5.54,41.84-5.54,41.84-5.54c1.43-6.39,2.59-12.18,2.59-12.18l-12.44-63.03c-1.34-7.72-8.13-13.86-16.9-15.19-2.3-.36-4.87-.57-7.72-.57-15.46,0-24.29,12-24.29,12l-30.67,63.99s-.27,7.32,2.01,14.98Z"/>
        <g>
          <polyline class="cls-6" points="810 1488.11 789.28 1465.8 789.28 1437.21"/>
          <polyline class="cls-6" points="775.07 1437.21 771.1 1465.8 745.75 1488.11"/>
          <line class="cls-6" x1="796.18" y1="1465.8" x2="765.49" y2="1465.8"/>
          <line class="cls-6" x1="765.49" y1="1455.15" x2="796.18" y2="1455.15"/>
          <line class="cls-6" x1="796.18" y1="1444.5" x2="765.49" y2="1444.5"/>
        </g>
      </g>
    </g>
  </g>
</svg>